<?xml version="1.0" encoding="utf-8"?>
<svg xmlns="http://www.w3.org/2000/svg" viewBox="0 0 20 20" style="enable-background:new 0 0 20 20;" xml:space="preserve"><style type="text/css">.st0{fill:none;stroke:#C7CBD3;stroke-width:2;stroke-miterlimit:10;}</style><path class="st0" d="M0,16h20 M3,19v-3 M17,19v-3 M6.5,16h-3C3.2,16,3,15.8,3,15.5v-13C3,2.2,3.2,2,3.5,2h3C6.8,2,7,2.2,7,2.5v13C7,15.8,6.8,16,6.5,16z M10.5,16h-3C7.2,16,7,15.8,7,15.5v-13C7,2.2,7.2,2,7.5,2h3C10.8,2,11,2.2,11,2.5v13C11,15.8,10.8,16,10.5,16z"/><path class="st0" d="M16.6,15.4L14.2,16c-0.5,0.1-1.1-0.2-1.2-0.7l-2-8.6c-0.1-0.5,0.2-1.1,0.7-1.2L14.1,5c0.5-0.1,0.6,0,0.8,0.5l2.3,9.1C17.2,15.1,17.2,15.2,16.6,15.4z"/></svg>
