<?xml version="1.0" encoding="utf-8"?>
<svg xmlns="http://www.w3.org/2000/svg" viewBox="0 0 30 30" style="enable-background:new 0 0 30 30;" xml:space="preserve"><style type="text/css">.st0{fill:none;stroke:#C7CBD3;stroke-miterlimit:10;}.st1{fill:#C7CBD3;}</style><path class="st0" d="M23,11H7V5c0-1.1,0.9-2,2-2h12c1.1,0,2,0.9,2,2V11z M7,16h16v9c0,1.1-0.9,2-2,2H9c-1.1,0-2-0.9-2-2C7,25,7,16,7,16z M10,20h10 M10,23h7"/><path class="st1" d="M25,10H5c-1.7,0-3,1.3-3,3v6c0,1.7,1.3,3,3,3h1v-5h18v5h1c1.7,0,3-1.3,3-3v-6C28,11.3,26.7,10,25,10z M23.5,15c-0.8,0-1.5-0.7-1.5-1.5s0.7-1.5,1.5-1.5s1.5,0.7,1.5,1.5S24.3,15,23.5,15z"/></svg>
