<?xml version="1.0" encoding="utf-8"?>
<svg xmlns="http://www.w3.org/2000/svg" viewBox="0 0 16 16" fill="#C7CBD3"><path d="M 7.5 1 C 3.917969 1 1 3.917969 1 7.5 C 1 11.082031 3.917969 14 7.5 14 C 11.082031 14 14 11.082031 14 7.5 C 14 3.917969 11.082031 1 7.5 1 Z M 7.5 2 C 10.542969 2 13 4.457031 13 7.5 C 13 10.542969 10.542969 13 7.5 13 C 4.457031 13 2 10.542969 2 7.5 C 2 4.457031 4.457031 2 7.5 2 Z M 5.5 4.792969 L 4.792969 5.5 L 5.148438 5.851563 L 6.792969 7.5 L 5.148438 9.148438 L 4.792969 9.5 L 5.5 10.207031 L 5.851563 9.851563 L 7.5 8.207031 L 9.148438 9.851563 L 9.5 10.207031 L 10.207031 9.5 L 9.851563 9.148438 L 8.207031 7.5 L 9.851563 5.851563 L 10.207031 5.5 L 9.5 4.792969 L 9.148438 5.148438 L 7.5 6.792969 L 5.851563 5.148438 Z" fill="#C7CBD3"/></svg>
