<?xml version="1.0" encoding="utf-8"?>
<svg version="1.1" id="Layer_1" xmlns="http://www.w3.org/2000/svg" xmlns:xlink="http://www.w3.org/1999/xlink" x="0px" y="0px"
	 viewBox="0 0 20 20" style="enable-background:new 0 0 20 20;" xml:space="preserve">
<style type="text/css">
	.st0{fill:#C7CBD3;}
	.st1{fill:none;stroke:#C7CBD3;stroke-width:2;stroke-miterlimit:10;}
</style>
<path class="st0" d="M12,2c-0.8,0-1.5,0.3-2,0.8C9.5,2.3,8.8,2,8,2H0v14c0,1.1,0.9,2,2,2h7h2h7c1.1,0,2-0.9,2-2V2H12z M9,16H2V4h6
	c0.6,0,1,0.4,1,1V16z M18,16h-7V5c0-0.6,0.4-1,1-1h6V16z"/>
<path class="st0" d="M8,17c0,1.1,0.9,2,2,2s2-0.9,2-2H8z"/>
<path class="st1" d="M4,7h3 M4,10h3 M4,13h3 M13,7h3 M13,10h3"/>
</svg>
