<?xml version="1.0" encoding="utf-8"?>
<svg version="1.1" id="Layer_1" xmlns="http://www.w3.org/2000/svg" xmlns:xlink="http://www.w3.org/1999/xlink" x="0px" y="0px"
	 viewBox="0 0 100 100" style="enable-background:new 0 0 100 100;" xml:space="preserve">
<style type="text/css">
	.st0{fill:none;stroke:#4E5B65;stroke-linejoin:round;stroke-miterlimit:10;}
	.st1{fill:none;stroke:#4E5B65;stroke-linecap:round;stroke-linejoin:round;stroke-miterlimit:10;}
	.st2{fill:#4E5B65;}
	.st3{fill:none;stroke:#4E5B65;stroke-linecap:round;stroke-miterlimit:10;}
</style>
<polyline class="st0" points="80.5,19.5 85.5,27.5 85.5,72.5 15.5,72.5 15.5,27.5 20.5,19.5 "/>
<line class="st1" x1="50.5" y1="59.5" x2="50.5" y2="25.5"/>
<line class="st0" x1="85.5" y1="72.5" x2="80.5" y2="66.5"/>
<line class="st0" x1="20.5" y1="66.5" x2="15.5" y2="72.5"/>
<path class="st1" d="M26.5,46.5c9.1,0.5,15.2,2.2,19,3.6"/>
<path class="st1" d="M55.5,29.1c3.8-1.4,9.9-3.1,19-3.6"/>
<path class="st1" d="M26.5,32.5c9.1,0.5,15.2,2.2,19,3.6"/>
<path class="st1" d="M55.5,43.1c3.8-1.4,9.9-3.1,19-3.6"/>
<path class="st1" d="M55.5,57.1c3.8-1.4,9.9-3.1,19-3.6"/>
<path class="st1" d="M55.5,64.1c3.8-1.4,9.9-3.1,19-3.6"/>
<path class="st1" d="M26.5,60.5c9.1,0.5,15.2,2.2,19,3.6"/>
<path class="st1" d="M42.5,28.1c-0.9-0.3-1.9-0.5-3-0.8"/>
<path class="st1" d="M45.5,29.1c-0.3-0.1-0.7-0.2-1-0.4"/>
<path class="st1" d="M36.5,26.7c-2.8-0.5-6.1-1-10-1.2"/>
<path class="st1" d="M45.5,43.1c-2.4-0.9-5.7-1.9-10-2.6"/>
<path class="st1" d="M31.5,39.9c-1.6-0.2-3.2-0.3-5-0.4"/>
<path class="st1" d="M45.5,57.1c-0.9-0.3-1.9-0.7-3-1"/>
<path class="st1" d="M38.5,55.1c-3.2-0.7-7.2-1.3-12-1.6"/>
<path class="st1" d="M68.5,33c-1.1,0.1-2.1,0.3-3,0.4"/>
<path class="st1" d="M74.5,32.5c-1,0.1-2,0.1-3,0.2"/>
<path class="st1" d="M61.5,34.3c-2.4,0.6-4.4,1.2-6,1.8"/>
<path class="st1" d="M74.5,46.5c-4.8,0.3-8.8,0.9-12,1.6"/>
<path class="st1" d="M58.5,49.1c-1.1,0.3-2.1,0.7-3,1"/>
<path class="st2" d="M86,24h-2.7l1.3,2H86c1.7,0,3,1.3,3,3v44c0,1.7-1.3,3-3,3H56c-0.4,0-0.8,0.3-0.9,0.7c0,0.1-0.9,2.3-4.6,2.3
	s-4.5-2.2-4.6-2.3C45.8,76.3,45.4,76,45,76H15c-1.7,0-3-1.3-3-3V29c0-1.7,1.3-3,3-3h1.4l1.3-2H15c-2.8,0-5,2.2-5,5v44
	c0,2.8,2.2,5,5,5h29.4c0.6,1.1,2.3,3,6.1,3s5.5-1.9,6.1-3H86c2.8,0,5-2.2,5-5V29C91,26.2,88.8,24,86,24z"/>
<path class="st3" d="M45.5,72.5c0,0,1,3,5,3s5-3,5-3"/>
<line class="st1" x1="50.5" y1="67.5" x2="50.5" y2="68.5"/>
<line class="st1" x1="50.5" y1="64.5" x2="50.5" y2="62.5"/>
<path class="st1" d="M57.3,69.5c4.7-1.5,12.2-3,23.2-3v-47c-22,0-30,6-30,6s-8-6-30-6v47c22,0,30,6,30,6"/>
</svg>
