<svg xmlns="http://www.w3.org/2000/svg" width="793.703" height="1122.521" fill-rule="evenodd" stroke-linejoin="bevel" stroke-width=".501" overflow="visible" viewBox="0 0 595.277 841.891"><defs><linearGradient id="e" x1="0" x2="62.525" y1="0" y2="0" gradientTransform="rotate(-89.293 329.05 47.656) skewX(-.135)" gradientUnits="userSpaceOnUse"><stop offset="0" stop-color="#fff"/><stop offset="1"/></linearGradient><linearGradient id="g" x1="0" x2="30.41" y1="0" y2="0" gradientTransform="rotate(-146.808 220.72 139.677) skewX(3.615)" gradientUnits="userSpaceOnUse"><stop offset="0" stop-color="#fff"/><stop offset="1"/></linearGradient><linearGradient id="i" x1="0" x2="23.98" y1="0" y2="0" gradientTransform="rotate(-48.273 545.717 -106.274) skewX(-4.035)" gradientUnits="userSpaceOnUse"><stop offset="0" stop-color="#fff"/><stop offset="1"/></linearGradient><linearGradient id="k" x1="0" x2="29.235" y1="0" y2="0" gradientTransform="rotate(-91.568 330.76 48.262) skewX(.176)" gradientUnits="userSpaceOnUse"><stop offset="0" stop-color="#fff"/><stop offset="1"/></linearGradient><linearGradient id="m" x1="0" x2="207.657" y1="0" y2="0" gradientTransform="rotate(92.355 -63.133 241.385) skewX(-1.666)" gradientUnits="userSpaceOnUse"><stop offset="0" stop-color="#fff"/><stop offset="1"/></linearGradient><linearGradient id="o" x1="0" x2="32.883" y1="0" y2="0" gradientTransform="rotate(96.397 -73.944 235.986) skewX(-2.034)" gradientUnits="userSpaceOnUse"><stop offset="0" stop-color="#fff"/><stop offset="1"/></linearGradient><linearGradient id="q" x1="0" x2="47.464" y1="0" y2="0" gradientTransform="rotate(96.299 -105.63 192.446) skewX(-1.615)" gradientUnits="userSpaceOnUse"><stop offset="0" stop-color="#fff"/><stop offset="1"/></linearGradient><linearGradient id="s" x1="0" x2="68.877" y1="0" y2="0" gradientTransform="rotate(92.254 -74.008 273.204) skewX(-3.558)" gradientUnits="userSpaceOnUse"><stop offset="0" stop-color="#fff"/><stop offset="1"/></linearGradient><linearGradient id="u" x1="0" x2="49.105" y1="0" y2="0" gradientTransform="rotate(-77.939 357.506 90.15) skewX(3.072)" gradientUnits="userSpaceOnUse"><stop offset="0" stop-color="#fff"/><stop offset="1"/></linearGradient><linearGradient id="w" x1="0" x2="199.84" y1="0" y2="0" gradientTransform="rotate(120.656 28.285 232.636) skewX(-6.238)" gradientUnits="userSpaceOnUse"><stop offset="0" stop-color="#fff"/><stop offset="1"/></linearGradient><linearGradient id="y" x1="0" x2="324.851" y1="0" y2="0" gradientTransform="rotate(-92.155 529.45 318.737) skewX(.538)" gradientUnits="userSpaceOnUse"><stop offset="0" stop-color="#fff"/><stop offset="1"/></linearGradient><linearGradient id="A" x1="0" x2="123.846" y1="0" y2="0" gradientTransform="rotate(-6.731 4177.913 -446.858) skewX(-.483)" gradientUnits="userSpaceOnUse"><stop offset="0" stop-color="#fff"/><stop offset="1"/></linearGradient><linearGradient id="C" x1="0" x2="28.054" y1="0" y2="0" gradientTransform="rotate(145.849 -15.564 296.473) skewX(-5.65)" gradientUnits="userSpaceOnUse"><stop offset="0" stop-color="#fff"/><stop offset="1"/></linearGradient><linearGradient id="G" x1="0" x2="67.495" y1="0" y2="0" gradientTransform="rotate(-11.431 2570.384 -309.579) skewX(-1.405)" gradientUnits="userSpaceOnUse"><stop offset="0" stop-color="#fff"/><stop offset="1"/></linearGradient><linearGradient id="I" x1="0" x2="14.472" y1="0" y2="0" gradientTransform="rotate(180 148.444 249.977) skewX(.897)" gradientUnits="userSpaceOnUse"><stop offset="0" stop-color="#fff"/><stop offset="1"/></linearGradient><linearGradient id="K" x1="0" x2="56.399" y1="0" y2="0" gradientTransform="rotate(177.161 145.738 253.462) skewX(.298)" gradientUnits="userSpaceOnUse"><stop offset="0" stop-color="#fff"/><stop offset="1"/></linearGradient><linearGradient id="M" x1="0" x2="8.24" y1="0" y2="0" gradientTransform="matrix(-1 0 -.01828 -1 298.74 499.226)" gradientUnits="userSpaceOnUse"><stop offset="0" stop-color="#fff"/><stop offset="1"/></linearGradient><linearGradient id="Q" x1="0" x2="46.168" y1="0" y2="42.954" gradientTransform="translate(80.422 387.139)" gradientUnits="userSpaceOnUse"><stop offset="0" stop-color="#fff"/><stop offset="1"/></linearGradient><linearGradient id="U" x1="0" x2="45.479" y1="0" y2="0" gradientTransform="rotate(-78.247 376.08 85.011) skewX(2.86)" gradientUnits="userSpaceOnUse"><stop offset="0" stop-color="#fff"/><stop offset="1"/></linearGradient><linearGradient id="ac" x1="0" x2="34.419" y1="0" y2="0" gradientTransform="rotate(-108.229 288.38 128.39) skewX(-16.859)" gradientUnits="userSpaceOnUse"><stop offset="0" stop-color="#fff"/><stop offset="1"/></linearGradient><linearGradient id="ag" x1="0" x2="22.273" y1="0" y2="0" gradientTransform="rotate(102.519 -44.815 269.79) skewX(3.386)" gradientUnits="userSpaceOnUse"><stop offset="0" stop-color="#fff"/><stop offset="1"/></linearGradient><linearGradient id="ak" x1="0" x2="67.133" y1="0" y2="0" gradientTransform="rotate(-89.114 315.114 125.89) skewX(-4.472)" gradientUnits="userSpaceOnUse"><stop offset="0" stop-color="#fff"/><stop offset="1"/></linearGradient><linearGradient id="aq" x1="0" x2="31.998" y1="0" y2="0" gradientTransform="rotate(-88.718 339.809 85.717) skewX(-4.219)" gradientUnits="userSpaceOnUse"><stop offset="0" stop-color="#fff"/><stop offset="1"/></linearGradient><linearGradient id="as" x1="0" x2="296.378" y1="0" y2="0" gradientTransform="rotate(-176.799 178.805 195.327) skewX(8.813)" gradientUnits="userSpaceOnUse"><stop offset="0" stop-color="#fff"/><stop offset="1"/></linearGradient><linearGradient id="au" x1="0" x2="30.651" y1="0" y2="0" gradientTransform="rotate(98.427 -47.151 293.804) skewX(.629)" gradientUnits="userSpaceOnUse"><stop offset="0" stop-color="#fff"/><stop offset="1"/></linearGradient><linearGradient id="aw" x1="0" x2="138.268" y1="0" y2="0" gradientTransform="rotate(-69.361 382.23 33.849) skewX(-5.725)" gradientUnits="userSpaceOnUse"><stop offset="0" stop-color="#fff"/><stop offset="1"/></linearGradient><linearGradient id="aA" x1="0" x2="14.514" y1="0" y2="0" gradientTransform="rotate(98.734 -5.108 302.362) skewX(4.813)" gradientUnits="userSpaceOnUse"><stop offset="0" stop-color="#fff"/><stop offset="1"/></linearGradient><linearGradient id="aC" x1="0" x2="14.984" y1="0" y2="0" gradientTransform="rotate(93.869 -27.901 322.1) skewX(-.566)" gradientUnits="userSpaceOnUse"><stop offset="0" stop-color="#fff"/><stop offset="1"/></linearGradient><linearGradient id="aI" x1="0" x2="12.119" y1="0" y2="0" gradientTransform="rotate(95.051 -112.252 203.981) skewX(-1.101)" gradientUnits="userSpaceOnUse"><stop offset="0" stop-color="#fff"/><stop offset="1"/></linearGradient><linearGradient id="aK" x1="0" x2="3.902" y1="0" y2="0" gradientTransform="rotate(94.954 -114.307 204.93) skewX(-1.715)" gradientUnits="userSpaceOnUse"><stop offset="0" stop-color="#fff"/><stop offset="1"/></linearGradient><linearGradient id="aM" x1="0" x2="3.902" y1="0" y2="0" gradientTransform="rotate(94.954 -114.307 204.93) skewX(-1.715)" gradientUnits="userSpaceOnUse"><stop offset="0" stop-color="#fff"/><stop offset="1"/></linearGradient><linearGradient id="aO" x1="0" x2="9.078" y1="0" y2="0" gradientTransform="rotate(-81.103 242.884 133.553) skewX(-2.109)" gradientUnits="userSpaceOnUse"><stop offset="0" stop-color="#fff"/><stop offset="1"/></linearGradient><linearGradient id="aQ" x1="0" x2="32.758" y1="0" y2="0" gradientTransform="rotate(101.368 -100.676 205.722) skewX(-2.749)" gradientUnits="userSpaceOnUse"><stop offset="0" stop-color="#fff"/><stop offset="1"/></linearGradient><linearGradient id="aU" x1="0" x2="50.476" y1="0" y2="0" gradientTransform="rotate(109.815 1.883 265.952) skewX(-17.286)" gradientUnits="userSpaceOnUse"><stop offset="0" stop-color="#fff"/><stop offset="1"/></linearGradient><linearGradient id="aW" x1="0" x2="16.244" y1="0" y2="0" gradientTransform="rotate(-39.109 605.311 83.922) skewX(26.659)" gradientUnits="userSpaceOnUse"><stop offset="0" stop-color="#fff"/><stop offset="1"/></linearGradient><linearGradient id="aY" x1="0" x2="-21.421" y1="0" y2="5.166" gradientTransform="translate(105.984 422.063)" gradientUnits="userSpaceOnUse"><stop offset="0" stop-color="#fff"/><stop offset="1"/></linearGradient><linearGradient id="ba" x1="0" x2="207.657" y1="0" y2="0" gradientTransform="rotate(87.645 43.048 372.713) skewX(1.666)" gradientUnits="userSpaceOnUse"><stop offset="0" stop-color="#fff"/><stop offset="1"/></linearGradient><linearGradient id="bc" x1="0" x2="32.882" y1="0" y2="0" gradientTransform="rotate(83.629 30.734 412.032) skewX(2.064)" gradientUnits="userSpaceOnUse"><stop offset="0" stop-color="#fff"/><stop offset="1"/></linearGradient><linearGradient id="be" x1="0" x2="47.464" y1="0" y2="0" gradientTransform="rotate(83.702 79.71 446.798) skewX(1.616)" gradientUnits="userSpaceOnUse"><stop offset="0" stop-color="#fff"/><stop offset="1"/></linearGradient><linearGradient id="bg" x1="0" x2="68.876" y1="0" y2="0" gradientTransform="rotate(87.758 10.44 383.331) skewX(3.571)" gradientUnits="userSpaceOnUse"><stop offset="0" stop-color="#fff"/><stop offset="1"/></linearGradient><linearGradient id="bi" x1="0" x2="49.105" y1="0" y2="0" gradientTransform="rotate(-102.061 367.488 50.912) skewX(-3.072)" gradientUnits="userSpaceOnUse"><stop offset="0" stop-color="#fff"/><stop offset="1"/></linearGradient><linearGradient id="bk" x1="0" x2="199.833" y1="0" y2="0" gradientTransform="rotate(59.348 -113.724 467.358) skewX(6.242)" gradientUnits="userSpaceOnUse"><stop offset="0" stop-color="#fff"/><stop offset="1"/></linearGradient><linearGradient id="bm" x1="0" x2="324.851" y1="0" y2="0" gradientTransform="rotate(-87.845 625.519 243.888) skewX(-.538)" gradientUnits="userSpaceOnUse"><stop offset="0" stop-color="#fff"/><stop offset="1"/></linearGradient><linearGradient id="bo" x1="0" x2="123.846" y1="0" y2="0" gradientTransform="rotate(-173.269 268.289 228.353) skewX(.489)" gradientUnits="userSpaceOnUse"><stop offset="0" stop-color="#fff"/><stop offset="1"/></linearGradient><linearGradient id="bq" x1="0" x2="28.066" y1="0" y2="0" gradientTransform="rotate(34.135 -671.062 1010.004) skewX(5.634)" gradientUnits="userSpaceOnUse"><stop offset="0" stop-color="#fff"/><stop offset="1"/></linearGradient><linearGradient id="bu" x1="0" x2="67.509" y1="0" y2="0" gradientTransform="rotate(-168.571 263.582 227.784) skewX(1.392)" gradientUnits="userSpaceOnUse"><stop offset="0" stop-color="#fff"/><stop offset="1"/></linearGradient><linearGradient id="bw" x1="0" x2="14.472" y1="0" y2="0" gradientTransform="matrix(1 0 -.0156 1 292.242 499.955)" gradientUnits="userSpaceOnUse"><stop offset="0" stop-color="#fff"/><stop offset="1"/></linearGradient><linearGradient id="by" x1="0" x2="56.4" y1="0" y2="0" gradientTransform="rotate(2.839 -9935.647 6006.922) skewX(-.299)" gradientUnits="userSpaceOnUse"><stop offset="0" stop-color="#fff"/><stop offset="1"/></linearGradient><linearGradient id="bA" x1="0" x2="8.226" y1="0" y2="0" gradientTransform="matrix(1 0 -.01675 1 290.403 499.225)" gradientUnits="userSpaceOnUse"><stop offset="0" stop-color="#fff"/><stop offset="1"/></linearGradient><linearGradient id="bE" x1="0" x2="-61.146" y1="0" y2="77.878" gradientTransform="translate(519.348 383.784)" gradientUnits="userSpaceOnUse"><stop offset="0" stop-color="#fff"/><stop offset="1"/></linearGradient><linearGradient id="bI" x1="0" x2="45.479" y1="0" y2="0" gradientTransform="rotate(-101.754 363.707 66.303) skewX(-2.861)" gradientUnits="userSpaceOnUse"><stop offset="0" stop-color="#fff"/><stop offset="1"/></linearGradient><linearGradient id="bQ" x1="0" x2="34.423" y1="0" y2="0" gradientTransform="rotate(-71.749 472.148 -8.643) skewX(16.881)" gradientUnits="userSpaceOnUse"><stop offset="0" stop-color="#fff"/><stop offset="1"/></linearGradient><linearGradient id="bU" x1="0" x2="22.27" y1="0" y2="0" gradientTransform="rotate(77.514 -41.559 422.871) skewX(-3.35)" gradientUnits="userSpaceOnUse"><stop offset="0" stop-color="#fff"/><stop offset="1"/></linearGradient><linearGradient id="bY" x1="0" x2="67.133" y1="0" y2="0" gradientTransform="rotate(-90.887 418.52 20.237) skewX(4.471)" gradientUnits="userSpaceOnUse"><stop offset="0" stop-color="#fff"/><stop offset="1"/></linearGradient><linearGradient id="ce" x1="0" x2="31.998" y1="0" y2="0" gradientTransform="rotate(-91.282 378.385 44.242) skewX(4.221)" gradientUnits="userSpaceOnUse"><stop offset="0" stop-color="#fff"/><stop offset="1"/></linearGradient><linearGradient id="cg" x1="0" x2="296.378" y1="0" y2="0" gradientTransform="rotate(-3.201 7284.956 -4142.812) skewX(-8.813)" gradientUnits="userSpaceOnUse"><stop offset="0" stop-color="#fff"/><stop offset="1"/></linearGradient><linearGradient id="ci" x1="0" x2="30.649" y1="0" y2="0" gradientTransform="rotate(81.599 -45.864 395.985) skewX(-.601)" gradientUnits="userSpaceOnUse"><stop offset="0" stop-color="#fff"/><stop offset="1"/></linearGradient><linearGradient id="ck" x1="0" x2="138.263" y1="0" y2="0" gradientTransform="rotate(-110.634 317.999 60.645) skewX(5.733)" gradientUnits="userSpaceOnUse"><stop offset="0" stop-color="#fff"/><stop offset="1"/></linearGradient><linearGradient id="co" x1="0" x2="12.117" y1="0" y2="0" gradientTransform="rotate(85.015 71.977 444.047) skewX(1.174)" gradientUnits="userSpaceOnUse"><stop offset="0" stop-color="#fff"/><stop offset="1"/></linearGradient><linearGradient id="cq" x1="0" x2="3.902" y1="0" y2="0" gradientTransform="rotate(85.046 71.104 445.845) skewX(1.715)" gradientUnits="userSpaceOnUse"><stop offset="0" stop-color="#fff"/><stop offset="1"/></linearGradient><linearGradient id="cs" x1="0" x2="3.902" y1="0" y2="0" gradientTransform="rotate(85.046 71.104 445.845) skewX(1.715)" gradientUnits="userSpaceOnUse"><stop offset="0" stop-color="#fff"/><stop offset="1"/></linearGradient><linearGradient id="cu" x1="0" x2="9.078" y1="0" y2="0" gradientTransform="rotate(-98.891 408.854 -44.244) skewX(2.117)" gradientUnits="userSpaceOnUse"><stop offset="0" stop-color="#fff"/><stop offset="1"/></linearGradient><linearGradient id="cw" x1="0" x2="32.761" y1="0" y2="0" gradientTransform="rotate(78.608 43.276 482.747) skewX(2.718)" gradientUnits="userSpaceOnUse"><stop offset="0" stop-color="#fff"/><stop offset="1"/></linearGradient><linearGradient id="cy" x1="0" x2="51.931" y1="0" y2="0" gradientTransform="rotate(70.761 -80.537 413.494) skewX(18.75)" gradientUnits="userSpaceOnUse"><stop offset="0" stop-color="#fff"/><stop offset="1"/></linearGradient><linearGradient id="cA" x1="0" x2="16.244" y1="0" y2="0" gradientTransform="rotate(-140.891 324.374 110.372) skewX(-26.644)" gradientUnits="userSpaceOnUse"><stop offset="0" stop-color="#fff"/><stop offset="1"/></linearGradient><linearGradient id="cC" x1="0" x2="22.035" y1="0" y2="0" gradientTransform="rotate(13.559 -1533.619 2243.138)" gradientUnits="userSpaceOnUse"><stop offset="0" stop-color="#fff"/><stop offset="1"/></linearGradient><linearGradient id="cE" x1="0" x2="34.315" y1="0" y2="0" gradientTransform="rotate(-92.649 344.332 65.056)" gradientUnits="userSpaceOnUse"><stop offset="0" stop-color="#fff"/><stop offset="1"/></linearGradient><linearGradient id="cG" x1="0" x2="-22.052" y1="0" y2="626.644" gradientTransform="translate(314.575 364.385)" gradientUnits="userSpaceOnUse"><stop offset="0" stop-color="#fff"/><stop offset="1"/></linearGradient><radialGradient id="a" cx="0" cy="0" r="81.842" gradientTransform="matrix(-.01304 -.99992 4.51357 -.01852 290.642 395)" gradientUnits="userSpaceOnUse"><stop offset="0" stop-color="#fff"/><stop offset="1"/></radialGradient><radialGradient id="c" cx="0" cy="0" r="83.086" gradientTransform="matrix(.04528 -.99897 4.4438 .0887 290.642 405.373)" gradientUnits="userSpaceOnUse"><stop offset="0" stop-color="#fff"/><stop offset="1"/></radialGradient><radialGradient id="E" cx="0" cy="0" r="274.616" gradientTransform="matrix(.04805 .99884 -.12339 .00496 216.708 365.283)" gradientUnits="userSpaceOnUse"><stop offset="0" stop-color="#fff"/><stop offset="1"/></radialGradient><radialGradient id="O" cx="0" cy="0" r="69.066" gradientTransform="matrix(.02256 -.99975 5.51454 .53107 243.365 465.41)" gradientUnits="userSpaceOnUse"><stop offset="0" stop-color="#fff"/><stop offset="1"/></radialGradient><radialGradient id="S" cx="0" cy="0" r="68.885" gradientTransform="matrix(.17689 -.98423 6.82995 1.00645 165.304 409.079)" gradientUnits="userSpaceOnUse"><stop offset="0" stop-color="#fff"/><stop offset="1"/></radialGradient><radialGradient id="W" cx="0" cy="0" r="52.82" gradientTransform="matrix(-.13209 -.99124 3.33919 .1467 243.786 440.185)" gradientUnits="userSpaceOnUse"><stop offset="0" stop-color="#fff"/><stop offset="1"/></radialGradient><radialGradient id="Y" cx="0" cy="0" r="62.907" gradientTransform="matrix(.88341 -.4686 .9499 .59287 84.142 392.768)" gradientUnits="userSpaceOnUse"><stop offset="0" stop-color="#fff"/><stop offset="1"/></radialGradient><radialGradient id="aa" cx="0" cy="0" r="83.296" gradientTransform="matrix(-.0037 -1 2.53472 .2216 210.63 458.419)" gradientUnits="userSpaceOnUse"><stop offset="0" stop-color="#fff"/><stop offset="1"/></radialGradient><radialGradient id="ae" cx="0" cy="0" r="74.621" gradientTransform="matrix(.5459 -.83785 .75922 .62453 106.124 638.375)" gradientUnits="userSpaceOnUse"><stop offset="0" stop-color="#fff"/><stop offset="1"/></radialGradient><radialGradient id="ai" cx="0" cy="0" r="9.744" gradientTransform="matrix(-.33127 .94354 -3.95437 -.79811 276.113 389.343)" gradientUnits="userSpaceOnUse"><stop offset="0" stop-color="#fff"/><stop offset="1"/></radialGradient><radialGradient id="am" cx="0" cy="0" r="40.577" gradientTransform="matrix(-.25253 -.96759 1.6418 .0007 249.078 408.181)" gradientUnits="userSpaceOnUse"><stop offset="0" stop-color="#fff"/><stop offset="1"/></radialGradient><radialGradient id="ao" cx="0" cy="0" r="29.855" gradientTransform="matrix(.80494 -.59336 1.1552 .5661 77.446 384.542)" gradientUnits="userSpaceOnUse"><stop offset="0" stop-color="#fff"/><stop offset="1"/></radialGradient><radialGradient id="ay" cx="0" cy="0" r="287.695" gradientTransform="matrix(-.06865 .99764 -.8941 -.09383 256.11 331.678)" gradientUnits="userSpaceOnUse"><stop offset="0" stop-color="#fff"/><stop offset="1"/></radialGradient><radialGradient id="aE" cx="0" cy="0" r="32.605" gradientTransform="matrix(.02625 -.99966 .93076 .02929 293.463 407.619)" gradientUnits="userSpaceOnUse"><stop offset="0" stop-color="#fff"/><stop offset="1"/></radialGradient><radialGradient id="aG" cx="0" cy="0" r="34.105" gradientTransform="matrix(-.07946 .99684 -1.88546 -.17329 292.93 377.945)" gradientUnits="userSpaceOnUse"><stop offset="0" stop-color="#fff"/><stop offset="1"/></radialGradient><radialGradient id="aS" cx="0" cy="0" r="49.072" gradientTransform="matrix(-.03377 .99943 -5.05795 -.19681 291.793 329.517)" gradientUnits="userSpaceOnUse"><stop offset="0" stop-color="#fff"/><stop offset="1"/></radialGradient><radialGradient id="bs" cx="0" cy="0" r="274.616" gradientTransform="matrix(-.0481 .99884 -.12339 -.00496 368.225 426.92)" gradientUnits="userSpaceOnUse"><stop offset="0" stop-color="#fff"/><stop offset="1"/></radialGradient><radialGradient id="bC" cx="0" cy="0" r="69.066" gradientTransform="matrix(-.02256 -.99975 5.51454 -.53107 345.765 465.41)" gradientUnits="userSpaceOnUse"><stop offset="0" stop-color="#fff"/><stop offset="1"/></radialGradient><radialGradient id="bG" cx="0" cy="0" r="68.885" gradientTransform="matrix(-.1769 -.98423 6.82995 -1.0065 423.84 409.079)" gradientUnits="userSpaceOnUse"><stop offset="0" stop-color="#fff"/><stop offset="1"/></radialGradient><radialGradient id="bK" cx="0" cy="0" r="52.822" gradientTransform="matrix(.13235 -.9912 3.33905 -.1467 345.344 440.185)" gradientUnits="userSpaceOnUse"><stop offset="0" stop-color="#fff"/><stop offset="1"/></radialGradient><radialGradient id="bM" cx="0" cy="0" r="62.919" gradientTransform="matrix(-.88346 -.4685 .94995 -.59276 505.002 392.768)" gradientUnits="userSpaceOnUse"><stop offset="0" stop-color="#fff"/><stop offset="1"/></radialGradient><radialGradient id="bO" cx="0" cy="0" r="83.296" gradientTransform="matrix(.0037 -1 2.53472 -.2216 378.5 458.419)" gradientUnits="userSpaceOnUse"><stop offset="0" stop-color="#fff"/><stop offset="1"/></radialGradient><radialGradient id="bS" cx="0" cy="0" r="74.621" gradientTransform="matrix(-.54591 -.83784 .75922 -.62453 483.006 638.375)" gradientUnits="userSpaceOnUse"><stop offset="0" stop-color="#fff"/><stop offset="1"/></radialGradient><radialGradient id="bW" cx="0" cy="0" r="9.744" gradientTransform="matrix(.33127 .94353 -3.95437 .79812 313.017 389.343)" gradientUnits="userSpaceOnUse"><stop offset="0" stop-color="#fff"/><stop offset="1"/></radialGradient><radialGradient id="ca" cx="0" cy="0" r="40.573" gradientTransform="matrix(.2522 -.96767 1.6423 -.0007 340.066 408.181)" gradientUnits="userSpaceOnUse"><stop offset="0" stop-color="#fff"/><stop offset="1"/></radialGradient><radialGradient id="cc" cx="0" cy="0" r="29.866" gradientTransform="matrix(-.8051 -.59314 1.15478 -.56588 511.698 384.542)" gradientUnits="userSpaceOnUse"><stop offset="0" stop-color="#fff"/><stop offset="1"/></radialGradient><radialGradient id="cm" cx="0" cy="0" r="287.696" gradientTransform="matrix(.0687 .99764 -.8941 .09382 333.02 331.678)" gradientUnits="userSpaceOnUse"><stop offset="0" stop-color="#fff"/><stop offset="1"/></radialGradient></defs><g fill="none" stroke="#000" font-family="Times New Roman" font-size="16" transform="matrix(1 0 0 -1 0 841.891)"><mask id="b"><rect width="120%" height="120%" x="-10%" y="-10%" fill="url(#a)" stroke="none"/></mask><path fill="#000" stroke="none" d="M187.595 326.415c-26.319 1.796-55.671.196-70.326-.604-.898.295-2.695.898-4.295 2.709-1.614 1.797-21.491 5.404-22.544 6.317-1.08.898-13.251 1.305-19.329 1.502-7.159-.506-9.166 1.881-9.124 5.418l61.202 93.866 167.996-85.135c.828-.954 1.867-2.148 2.793-3.537.899 1.389 1.937 2.583 2.752 3.537l168.024 85.135 61.173-93.866c.056-3.537-1.965-5.924-9.124-5.418-6.092-.197-18.248-.604-19.301-1.502-1.081-.913-20.943-4.52-22.557-6.317-1.601-1.811-3.411-2.414-4.296-2.709-14.669.8-44.006 2.4-70.326.604-26.291-1.811-93.922-5.124-103.593 3.902-1.137 1.067-2.05 2.105-2.752 3.116a22.845 22.845 0 0 0-2.793-3.116c-9.658-9.026-77.302-5.713-103.58-3.902Z" mask="url(#b)"/><mask id="d"><rect width="120%" height="120%" x="-10%" y="-10%" fill="url(#c)" stroke="none"/></mask><path fill="#000" stroke="none" d="M187.595 333.77c-26.319 2.134-51.376-3.327-66.044-4.281-.885.365-2.695 1.081-4.282 3.214-1.614 2.134-25.786 2.85-26.839 3.917-1.08 1.08-13.251-.955-19.329-.716-7.159-.59-9.166 2.232-9.124 6.415l61.202 111.159 170.242-81.569c.814-1.123 1.853-2.541 2.765-4.183.927 1.642 1.951 3.06 2.78 4.183l165.778 81.569 61.173-111.159c.056-4.183-1.965-7.005-9.124-6.415-6.092-.239-19.497 2.133-20.564 1.08-8.591-.364-19.329-1.431-20.929-3.565-1.615-2.134-3.397-2.849-4.296-3.214-14.669.954-44.554 6.779-70.859 4.632-26.32-2.134-94.47-10.682-104.127 0a23.482 23.482 0 0 0-2.78 3.692 23.472 23.472 0 0 0-2.779-3.692c-9.671-10.682-76.586-3.201-102.864-1.067Z" mask="url(#d)"/><mask id="f"><rect width="120%" height="120%" x="-10%" y="-10%" fill="url(#e)" stroke="none"/></mask><path fill="#000" stroke="none" d="M42.367 341.687c0-1.685-2.344-8.815.379-10.065.281-.126.632-2.723 3.917-2.526 30.615 1.923 204.899 20.564 205.278 20.564 5.994-1.404 17.968-4.197 39.852-5.039 21.883-.857 34.39 4.042 41.423 7.145l211.441-22.614c2.077.982.463 6.513-.786 13.854-15.062 88.869-360.459 71.084-501.504-1.319Z" mask="url(#f)"/><path fill="#bf0000" stroke="none" d="M257.556 389.82c0-.632-.87-16.858-1.319-25 .196-3.032.589-9.11 18.009-10.668 17.406-1.586 50.337-4.253 56.907 5.502 6.583 9.728-.421 39.753-.576 39.908l-73.021-9.742Z"/><mask id="h"><rect width="120%" height="120%" x="-10%" y="-10%" fill="url(#g)" stroke="none"/></mask><path fill="#000" stroke="none" d="M257.556 389.82c0-.632-.87-16.858-1.319-25 .196-3.032.589-9.11 18.009-10.668 17.406-1.586 50.337-4.253 56.907 5.502 6.583 9.728-.421 39.753-.576 39.908l-73.021-9.742Z" mask="url(#h)"/><mask id="j"><rect width="120%" height="120%" x="-10%" y="-10%" fill="url(#i)" stroke="none"/></mask><path fill="#000" stroke="none" d="M257.556 389.82c0-.632-.87-16.858-1.319-25 .196-3.032.589-9.11 18.009-10.668 17.406-1.586 50.337-4.253 56.907 5.502 6.583 9.728-.421 39.753-.576 39.908l-73.021-9.742Z" mask="url(#j)"/><mask id="l"><rect width="120%" height="120%" x="-10%" y="-10%" fill="url(#k)" stroke="none"/></mask><path fill="#000" stroke="none" d="M257.556 389.82c0-.632-.87-16.858-1.319-25 .196-3.032.589-9.11 18.009-10.668 17.406-1.586 50.337-4.253 56.907 5.502 6.583 9.728-.421 39.753-.576 39.908l-73.021-9.742Z" mask="url(#l)"/><path fill="#000" stroke="none" d="m49.049 334.682.239 14.866 205.11 23.414-.042-3.44c.393-1.698 1.417-3.326 2.962-4.842 5.334-4.24 18.585-7.117 32.804-7.693l-.098-7.987c-15.82.716-30.783 4.618-38.083 10.43L49.049 334.682Z"/><path fill="#bf0000" stroke="none" d="m253.724 368.933 18.838 228.299-157.946-23.301L48.038 347.54l205.686 21.393Z"/><mask id="n"><rect width="120%" height="120%" x="-10%" y="-10%" fill="url(#m)" stroke="none"/></mask><path fill="#400000" stroke="none" d="m253.724 368.933 18.838 228.299-157.946-23.301L48.038 347.54l205.686 21.393Z" mask="url(#n)"/><mask id="p"><rect width="120%" height="120%" x="-10%" y="-10%" fill="url(#o)" stroke="none"/></mask><path fill="#fff7c8" stroke="none" d="m254.735 372.119 29.127 248.106-164.361-25.295-69.89-248.106 205.124 25.295Z" mask="url(#p)"/><path fill="#e46700" stroke="none" d="m42.339 339.623 1.39 7.005 12.9 39.767 52.794-32.355c-25.407-7.468-51.067-15.118-67.084-14.417Z"/><mask id="r"><rect width="120%" height="120%" x="-10%" y="-10%" fill="url(#q)" stroke="none"/></mask><path fill="#bf0000" stroke="none" d="m42.339 339.623 1.39 7.005 12.9 39.767 52.794-32.355c-25.407-7.468-51.067-15.118-67.084-14.417Z" mask="url(#r)"/><mask id="t"><rect width="120%" height="120%" x="-10%" y="-10%" fill="url(#s)" stroke="none"/></mask><path fill="#402100" stroke="none" d="M256.026 388.192c.197.014-124.972-15.946-187.55-23.919l6.851 4.941c59.18 8.113 183.113 25.294 183.31 25.098.168-.197-3.551-4.478-2.611-6.12Z" mask="url(#t)"/><mask id="v"><rect width="120%" height="120%" x="-10%" y="-10%" fill="url(#u)" stroke="none"/></mask><path fill="#402100" stroke="none" d="M85.11 392.347c-3.509-8.184-10.148-18.403-17.785-29.268-.379-.603-1.431-3.902 6.401-1.796 6.415 1.712 123.12 16.956 181.444 24.649l3.214 8.015-171.28-1.446-1.994-.154Z" mask="url(#v)"/><mask id="x"><rect width="120%" height="120%" x="-10%" y="-10%" fill="url(#w)" stroke="none"/></mask><path fill="#000" stroke="none" d="m255.689 388.234-1.291-5.769c-63.279-7.131-189.894-21.337-190.273-19.568-.351 1.783 55.573 201.657 57.566 201.657 1.979 0 19.933-20.438 28.931-30.643l105.067-145.677Z" mask="url(#x)"/><path fill="#fff" stroke="none" d="m295.19 398.27-.857 219.583c-31.681 33.24-46.87 32.678-95.48 5.306-22.965-12.718-43.627-22.432-66.381-20.761L67.901 364.16l67.434 24.593 159.349 8.268.506 1.249Z"/><mask id="z"><rect width="120%" height="120%" x="-10%" y="-10%" fill="url(#y)" stroke="none"/></mask><path fill="#ffda00" stroke="none" d="m294.754 425.783-.421 192.07c-31.681 33.24-46.87 32.678-95.48 5.306-22.965-12.718-43.627-22.432-66.381-20.761L85.658 429.405l50.028-12.184 158.563 7.313.505 1.249Z" mask="url(#z)"/><mask id="B"><rect width="120%" height="120%" x="-10%" y="-10%" fill="url(#A)" stroke="none"/></mask><path fill="#ce7e2b" stroke="none" d="m295.19 402.229-.857 215.624c-31.681 33.24-46.87 32.678-95.48 5.306-22.965-12.718-43.627-22.432-66.381-20.761L68.294 366.533l64.262 16.662 162.128 17.799.506 1.235Z" mask="url(#B)"/><path fill="#ff8200" stroke="none" d="m107.528 554.658 26.432 23.708c-7.286-1.305-20.017-1.123-20.354-4.351l-6.078-19.357Z"/><mask id="D"><rect width="120%" height="120%" x="-10%" y="-10%" fill="url(#C)" stroke="none"/></mask><path fill="#bf0000" stroke="none" d="m107.528 554.658 26.432 23.708c-7.286-1.305-20.017-1.123-20.354-4.351l-6.078-19.357Z" mask="url(#D)"/><path fill="#7f0000" stroke="none" d="m123.642 569.186-16.128-14.556.505-2.499.786 1.923 13.813 12.058 1.024 3.074Z"/><mask id="F"><rect width="120%" height="120%" x="-10%" y="-10%" fill="url(#E)" stroke="none"/></mask><path fill="#fff" stroke="none" d="m294.516 399.913-.183 217.94c-31.681 33.24-46.87 32.678-95.48 5.306-22.965-12.718-43.627-22.432-66.381-20.761L67.901 365.339l67.827 22.614 158.268 10.71.52 1.25Z" mask="url(#F)"/><mask id="H"><rect width="120%" height="120%" x="-10%" y="-10%" fill="url(#G)" stroke="none"/></mask><path fill="#fff3ab" stroke="none" d="m295.19 400.643-.857 217.21c-31.681 33.24-46.87 32.678-95.48 5.306-22.965-12.718-43.627-22.432-66.381-20.761L67.901 365.746l63.869 23.793 162.914 9.868.506 1.236Z" mask="url(#H)"/><mask id="J"><rect width="120%" height="120%" x="-10%" y="-10%" fill="url(#I)" stroke="none"/></mask><path fill="#402100" stroke="none" d="m294.404 403.422-.071 214.431c-31.681 33.24-46.87 32.678-95.48 5.306-22.965-12.718-43.627-22.432-66.381-20.761L85.658 429.405l50.028-12.184 158.198-15.034.52 1.235Z" mask="url(#J)"/><mask id="L"><rect width="120%" height="120%" x="-10%" y="-10%" fill="url(#K)" stroke="none"/></mask><path fill="#ce7e2b" stroke="none" d="m295.19 398.663-.857 219.19c-31.681 33.24-46.87 32.678-95.48 5.306-22.965-12.718-43.627-22.432-66.381-20.761L85.658 429.405l50.028-12.184 158.998-19.807.506 1.249Z" mask="url(#L)"/><mask id="N"><rect width="120%" height="120%" x="-10%" y="-10%" fill="url(#M)" stroke="none"/></mask><path fill="#7f4100" stroke="none" d="m294.909 400.699-.576 217.154c-31.681 33.24-46.87 32.678-95.48 5.306-22.965-12.718-43.627-22.432-66.381-20.761L85.658 429.405l50.028-12.184 158.718-17.757.505 1.235Z" mask="url(#N)"/><path fill="#fff7c8" stroke="none" d="M85.911 398.074c53.032 1.6 94.497 14.36 121.505 24.649 37.184 11.595 68.697 11.482 84.208-3.622 3.383-8.155 2.218-15.847-.702-23.301-12.773-1.109-25.477-3.032-36.594-6.415L69.712 365.396c10.149 11.959 13.517 17.392 16.199 32.678Z"/><mask id="P"><rect width="120%" height="120%" x="-10%" y="-10%" fill="url(#O)" stroke="none"/></mask><path fill="#402100" stroke="none" d="M85.911 398.074c53.032 1.6 94.497 14.36 121.505 24.649 37.184 11.595 68.697 11.482 84.208-3.622 3.383-8.155 2.218-15.847-.702-23.301-12.773-1.109-25.477-3.032-36.594-6.415L69.712 365.396c10.149 11.959 13.517 17.392 16.199 32.678Z" mask="url(#P)"/><mask id="R"><rect width="120%" height="120%" x="-10%" y="-10%" fill="url(#Q)" stroke="none"/></mask><path fill="#fff" stroke="none" d="m294.516 400.699-.183 217.154c-31.681 33.24-46.87 32.678-95.48 5.306-22.965-12.718-43.627-22.432-66.381-20.761L68.294 365.746l62.676 17.056 163.026 16.662.52 1.235Z" mask="url(#R)"/><mask id="T"><rect width="120%" height="120%" x="-10%" y="-10%" fill="url(#S)" stroke="none"/></mask><path fill="#7f4100" stroke="none" d="M85.911 398.074c53.032 1.6 94.497 14.36 121.505 24.649 37.184 11.595 68.697 11.482 84.208-3.622 3.383-8.155 5.25-15.595 2.33-23.034-12.759-1.123-28.509-3.299-39.626-6.682L69.712 365.396c10.149 11.959 13.517 17.392 16.199 32.678Z" mask="url(#T)"/><mask id="V"><rect width="120%" height="120%" x="-10%" y="-10%" fill="url(#U)" stroke="none"/></mask><path fill="#fff" stroke="none" d="M290.122 419.13c-1.488 1.712-3.439 3.214-5.966 4.548-.884.477-1.838.926-2.793 1.347l-2.807 1.235-.618.197c-.463.126-.898.267-1.376.393-1.389.379-2.807.758-4.253 1.067-4.029.898-8.296 1.488-12.83 1.754-5.151.309-10.836.141-16.578-.477-5.797-.617-11.257-1.586-16.549-2.737a233.828 233.828 0 0 1-8.072-1.909c-.772-.197-1.516-.393-2.274-.59a19.245 19.245 0 0 1-.716-.196l-.098-.014-12.816-4.31c-4.309-1.445-8.59-2.891-12.928-4.295-6.85-2.218-13.812-4.337-21.084-6.092-.252-.056-.505-.112-.772-.183l-.042-.014-.814-.21a155.589 155.589 0 0 0-4.562-1.235 372.43 372.43 0 0 0-14.009-3.285c-8.352-1.755-16.999-3.187-25.997-4.309a276.557 276.557 0 0 0-13.644-1.334 365.775 365.775 0 0 0-11.44-.632c-3.509-.14-6.948-.182-10.373-.196l.168.912c3.594.113 7.229.253 10.949.492 6.148.393 12.409.954 18.375 1.67 5.965.716 11.805 1.614 17.504 2.611 5.081.884 10.078 1.937 14.977 3.032a320.66 320.66 0 0 1 12.564 3.13c1.024.281 2.063.562 3.088.856.716.197 1.389.407 2.105.59 2.387.589 4.745 1.221 7.061 1.867 5.769 1.614 11.398 3.425 16.957 5.278 7.089 2.358 14.121 4.786 21.238 7.103.674.224 1.333.463 2.021.659.786.239 1.615.435 2.415.632 1.445.351 2.877.716 4.337 1.067 3.313.772 6.668 1.474 10.121 2.119 3.425.632 6.948 1.151 10.57 1.53 1.951.225 3.972.408 5.937.52 6.935.393 13.406.182 19.33-.702 3.214-.491 6.288-1.109 9.25-1.909a74.447 74.447 0 0 0 3.439-1.025c.407-.126.856-.252 1.235-.407.337-.126.66-.295.969-.435 2.835-1.305 5.531-2.709 7.608-4.309 2.878-2.204 4.688-4.787 5.503-7.707.238-.828.421-1.698.533-2.569.042-.407.056-.842.098-1.263l-1.572-.168c-.337 2.933-1.347 5.586-3.369 7.903Z" mask="url(#V)"/><mask id="X"><rect width="120%" height="120%" x="-10%" y="-10%" fill="url(#W)" stroke="none"/></mask><path fill="#402100" stroke="none" d="M292.256 407.928c-15.988 6.878-32.44 12.956-55.012 8.52-14.724-3.397-44.16-10.19-55.137-12.591-10.949-2.414-41.003-9.306-52.639-10.738-12.381-1.502-35.402-2.794-44.905-2.148l-.547-2.133c11.973.421 40.3 2.203 49.298 3.607 9.012 1.404 56.555 11.174 68.501 14.22 11.973 3.032 40.02 7.762 50.66 8.324 12.058.631 32.355-3.327 39.781-7.061Z" mask="url(#X)"/><mask id="Z"><rect width="120%" height="120%" x="-10%" y="-10%" fill="url(#Y)" stroke="none"/></mask><path fill="#402100" stroke="none" d="M292.256 407.928c-15.988 6.878-32.44 12.956-55.012 8.52-14.724-3.397-44.16-10.19-55.137-12.591-10.949-2.414-41.003-9.306-52.639-10.738-12.381-1.502-35.402-2.794-44.905-2.148l-.547-2.133c11.973.421 40.3 2.203 49.298 3.607 9.012 1.404 56.555 11.174 68.501 14.22 11.973 3.032 40.02 7.762 50.66 8.324 12.058.631 32.355-3.327 39.781-7.061Z" mask="url(#Z)"/><mask id="ab"><rect width="120%" height="120%" x="-10%" y="-10%" fill="url(#aa)" stroke="none"/></mask><path fill="#fff" stroke="none" d="M117.719 390.522c-3.72-.281-7.44-.491-11.118-.716-7.453-.435-14.851-.842-22.347-1.347v.224c3.229.239 6.443.463 9.686.674 7.917.519 15.82.982 23.779 1.586 2.161.169 4.309.323 6.386.562 1.067.112 2.12.224 3.187.365.239.028.449.042.674.084l.323.042c.014 0 .042 0 .056.014h.07c.968.126 1.965.309 2.92.477 2.835.477 5.628 1.025 8.436 1.544 3.369.604 6.682 1.292 10.022 1.937 4.422.871 8.83 1.755 13.195 2.653 3.917.8 7.777 1.601 11.637 2.429 2.316.519 4.562 1.067 6.892 1.586 2.457.533 4.969 1.137 7.454 1.698 6.668 1.488 13.363 2.948 20.101 4.31a576.47 576.47 0 0 0 16.873 3.242c4.098.73 8.211 1.418 12.436 1.994 3.131.421 6.373.8 9.644.982 5.067.295 9.798.239 14.346-.042 4.267-.267 8.38-.758 12.296-1.474 3.678-.674 7.272-1.53 10.57-2.695 1.207-.393 2.415-.856 3.481-1.418.534-.28 1.025-.561 1.516-.842l-.294-.168c-.365.21-.716.407-1.095.603-1.109.59-2.358 1.067-3.608 1.502-1.516.548-3.116.997-4.716 1.39-5.503 1.376-11.44 2.274-17.743 2.653-3.383.211-6.878.309-10.486.196a78.235 78.235 0 0 1-3.158-.14l-3.215-.196-2.582-.253c-5.98-.66-11.693-1.614-17.35-2.639-10.654-1.923-21.07-4.141-31.359-6.373-3.917-.87-7.805-1.74-11.679-2.625-2.667-.617-5.362-1.249-8.085-1.839-4.562-.996-9.124-1.909-13.757-2.849a1402.664 1402.664 0 0 0-23.343-4.52c-1.474-.281-2.948-.534-4.45-.8a127.203 127.203 0 0 0-5.98-.941c-3.088-.407-6.359-.631-9.615-.87Z" mask="url(#ab)"/><mask id="ad"><rect width="120%" height="120%" x="-10%" y="-10%" fill="url(#ac)" stroke="none"/></mask><path fill="#000" stroke="none" d="M281.953 412.42c-14.936 4.815-30.433 9.082-59.097.66 19.849 4.337 39.557 4.604 59.097-.66Z" mask="url(#ad)"/><mask id="af"><rect width="120%" height="120%" x="-10%" y="-10%" fill="url(#ae)" stroke="none"/></mask><path fill="#edbc00" stroke="none" d="m294.754 425.783-.421 192.07c-31.681 33.24-46.87 32.678-95.48 5.306-22.965-12.718-43.627-22.432-66.381-20.761L85.658 429.405l50.028-12.184 158.563 7.313.505 1.249Z" mask="url(#af)"/><mask id="ah"><rect width="120%" height="120%" x="-10%" y="-10%" fill="url(#ag)" stroke="none"/></mask><path fill="#fff" stroke="none" d="M85.911 398.074c53.032 1.6 94.497 14.36 121.505 24.649 37.184 11.595 68.697 11.482 84.208-3.622 3.383-8.155 5.994-15.581 3.074-23.02-12.773-1.109-29.253-3.313-40.37-6.696L69.712 365.396c10.149 11.959 13.517 17.392 16.199 32.678Z" mask="url(#ah)"/><mask id="aj"><rect width="120%" height="120%" x="-10%" y="-10%" fill="url(#ai)" stroke="none"/></mask><path fill="#7f4100" stroke="none" d="M85.911 398.074c53.032 1.6 94.497 14.36 121.505 24.649 37.184 11.595 68.697 11.482 84.208-3.622 3.383-8.155 2.218-15.847-.702-23.301-12.773-1.109-25.477-3.032-36.594-6.415L69.712 365.396c10.149 11.959 13.517 17.392 16.199 32.678Z" mask="url(#aj)"/><mask id="al"><rect width="120%" height="120%" x="-10%" y="-10%" fill="url(#ak)" stroke="none"/></mask><path fill="#402100" stroke="none" d="M293 402.72c-12.788 1.867-25.183 5.334-40.245 4.394-13.63-.828-71.252-11.272-89.275-15.006-17.968-3.706-60.388-9.615-82.426-10.57l-1.404-1.67c13.742 1.544 41.199 4.604 57.075 6.836 15.89 2.232 94.048 17.167 106.527 17.911 20.537 1.235 41.452-1.123 48.709-2.765l1.039.87Z" mask="url(#al)"/><mask id="an"><rect width="120%" height="120%" x="-10%" y="-10%" fill="url(#am)" stroke="none"/></mask><path fill="#402100" stroke="none" d="M293 402.72c-12.788 1.867-25.183 5.334-40.245 4.394-13.63-.828-71.252-11.272-89.275-15.006-17.968-3.706-60.388-9.615-82.426-10.57l-1.404-1.67c13.742 1.544 41.199 4.604 57.075 6.836 15.89 2.232 94.048 17.167 106.527 17.911 20.537 1.235 41.452-1.123 48.709-2.765l1.039.87Z" mask="url(#an)"/><mask id="ap"><rect width="120%" height="120%" x="-10%" y="-10%" fill="url(#ao)" stroke="none"/></mask><path fill="#402100" stroke="none" d="M293 402.72c-12.788 1.867-25.183 5.334-40.245 4.394-13.63-.828-71.252-11.272-89.275-15.006-17.968-3.706-60.388-9.615-82.426-10.57l-1.404-1.67c13.742 1.544 41.199 4.604 57.075 6.836 15.89 2.232 94.048 17.167 106.527 17.911 20.537 1.235 41.452-1.123 48.709-2.765l1.039.87Z" mask="url(#ap)"/><mask id="ar"><rect width="120%" height="120%" x="-10%" y="-10%" fill="url(#aq)" stroke="none"/></mask><path fill="#fff" stroke="none" d="m80.675 379.629-.014.239c9.475 1.151 18.88 2.4 28.355 3.579 3.453.421 6.878.871 10.317 1.264 4.548.519 9.208 1.024 13.658 1.656 6.555.884 13.083 1.937 19.54 2.99 4.07.674 8.169 1.361 12.24 2.021 2.176.379 4.38.73 6.583 1.109 2.33.407 4.647.786 6.991 1.165.617.098 1.249.183 1.867.295 1.558.281 3.004.547 4.562.856 4.52.899 9.054 1.867 13.574 2.794 9.362 1.881 18.837 3.719 28.607 5.235 3.467.534 6.949 1.039 10.5 1.432 2.92.337 6.008.646 8.998.814 3.565.183 6.934.141 10.289.071a274.79 274.79 0 0 0 7.608-.239c5.278-.253 10.528-.604 15.609-1.109 3.103-.309 6.135-.674 9.082-1.207 1.025-.183 2.008-.407 3.004-.632l-.196-.21c-.463.112-.941.21-1.432.308-1.404.295-2.836.492-4.295.716a92.633 92.633 0 0 1-5.054.59c-4.492.449-9.096.758-13.742.997-3.58.182-7.173.294-10.837.35-1.488.014-3.018.029-4.562.029a15.818 15.818 0 0 0-1.193 0c-.182-.015-.379-.015-.561-.015a.197.197 0 0 0-.127 0c-.042 0-.126-.014-.084 0-.968-.028-1.979-.056-2.962-.112-2.779-.14-5.615-.421-8.324-.716a278.09 278.09 0 0 1-8.885-1.179c-10.332-1.544-20.396-3.509-30.278-5.516-4.001-.801-8.015-1.629-11.988-2.457-1.558-.309-3.116-.632-4.66-.912a34.062 34.062 0 0 0-2.794-.52c-2.54-.421-5.081-.814-7.65-1.235-4.057-.688-8.085-1.347-12.142-2.021a1172.066 1172.066 0 0 0-21.154-3.341c-3.593-.519-7.229-1.053-10.907-1.46-5.46-.618-10.935-1.207-16.297-1.867a12637.164 12637.164 0 0 0-31.246-3.762Z" mask="url(#ar)"/><mask id="at"><rect width="120%" height="120%" x="-10%" y="-10%" fill="url(#as)" stroke="none"/></mask><path fill="#402100" stroke="none" d="m76.758 373.509.042.239c.744-.014 1.488 0 2.218.028 1.825.07 3.636.168 5.545.323 3.93.336 7.819.912 11.426 1.502 1.558.266 3.215.477 4.843.715 2.892.436 5.769.829 8.689 1.264 2.906.435 5.797.828 8.675 1.235 3.242.463 6.471.941 9.728 1.39 2.428.323 4.856.688 7.299 1.024 5.559.786 11.131 1.587 16.676 2.359 18.697 2.625 37.395 5.221 56.106 7.79 13.616 1.895 27.316 3.762 40.862 5.657 5.783.8 12.086 1.278 17.982 1.53 8.324.337 16.283.197 24.705.646l-.014-.211c-6.583-.421-12.9-.463-19.287-.617-2.288-.056-4.59-.127-6.92-.267a295.574 295.574 0 0 1-7.679-.547c-3.509-.309-6.892-.744-10.219-1.208-3.467-.533-7.032-.996-10.499-1.502a6874.854 6874.854 0 0 0-16.747-2.344c-7.102-.996-14.247-1.979-21.406-3.004-15.82-2.218-31.71-4.379-47.558-6.583-13.798-1.923-27.499-3.804-41.255-5.713-3.958-.534-7.959-1.095-11.917-1.671-.772-.098-1.558-.224-2.302-.322-.365-.057-.702-.141-1.053-.169-5.699-.912-12.17-1.586-17.94-1.544Z" mask="url(#at)"/><mask id="av"><rect width="120%" height="120%" x="-10%" y="-10%" fill="url(#au)" stroke="none"/></mask><path fill="#402100" stroke="none" d="M80.492 372.583c-1.263-.057-2.54-.113-3.762-.099l.028.113c1.039-.014 2.092.042 3.145.084 3.565.154 7.313.547 10.752 1.01 1.797.267 3.622.562 5.32.815 4.352.659 8.801 1.319 13.251 1.951 6.12.87 12.17 1.74 18.276 2.625 7.777 1.123 15.554 2.204 23.302 3.312 16.859 2.401 33.731 4.773 50.562 7.145 7.06.983 14.121 2.008 21.111 2.962 6.837.941 13.687 1.951 20.509 2.892 2.063.281 4.056.575 6.134.87 5.755.758 11.973 1.334 17.897 1.6 8.24.379 16.199.351 24.523.871l-.028-.113c-6.555-.435-12.872-.519-19.259-.73-2.288-.07-4.59-.154-6.92-.308a243.769 243.769 0 0 1-7.707-.576c-3.509-.323-6.892-.772-10.233-1.221-1.432-.225-2.877-.407-4.309-.618a486.23 486.23 0 0 0-6.064-.87c-5.503-.772-11.005-1.572-16.494-2.344-23.638-3.341-47.361-6.682-71.07-10.037-13.293-1.881-26.572-3.734-39.781-5.601-3.93-.561-7.818-1.123-11.721-1.684-1.123-.168-2.246-.365-3.298-.491-4.043-.646-8.198-1.165-12.55-1.46-.547-.042-1.094-.07-1.614-.098Z" mask="url(#av)"/><mask id="ax"><rect width="120%" height="120%" x="-10%" y="-10%" fill="url(#aw)" stroke="none"/></mask><path fill="#bf0000" stroke="none" d="M254.356 373.341 49.877 347.428c-.266-.463-.828-1.362-.042-3.158.786-1.797 137.101 15.497 205.251 24.115l-.73 4.956Z" mask="url(#ax)"/><mask id="az"><rect width="120%" height="120%" x="-10%" y="-10%" fill="url(#ay)" stroke="none"/></mask><path fill="#fff" stroke="none" d="m51.478 345.21-.085.842 50.787 6.78 50.772 7.145 50.744 7.131 50.786 6.766.477-4.323-50.856-6.275-50.885-5.91-50.884-5.909-50.856-6.247Z" mask="url(#az)"/><path fill="#bf0000" stroke="none" d="M273.334 357.577c-5.573 1.137-10.823 2.906-15.623 5.685l.575 1.39c2.176-.913 4.436-1.629 6.738-2.218 2.344-.576 4.744-1.067 7.215-1.39 5.376-.758 11.019-1.053 16.746-1.081 2.19 0 4.324.028 6.485.028 4.576 0 9.096.056 13.546.267 3.271.154 6.457.449 9.545.955 2.316.35 4.59.87 6.696 1.642 1.151.407 2.26.912 3.313 1.614.421.295.842.59 1.207.955l1.011-1.151c-.478-.464-.927-.955-1.446-1.362-2.05-1.698-4.408-2.751-6.878-3.622a39.457 39.457 0 0 0-4.324-1.249c-3.551-.814-7.285-1.361-11.103-1.698a134.794 134.794 0 0 0-10.177-.45h-3.425c-6.991-.098-13.742.379-20.101 1.685Z"/><mask id="aB"><rect width="120%" height="120%" x="-10%" y="-10%" fill="url(#aA)" stroke="none"/></mask><path fill="#fff" stroke="none" d="M273.446 358.377c-5.53 1.039-10.78 2.653-15.595 5.236l.281.688c4.365-2.022 9.082-3.215 13.967-4.043 5.404-.926 11.089-1.263 16.886-1.305 2.176-.029 4.324.014 6.485.014 4.604 0 9.167.112 13.616.365 4.534.294 9.04.8 13.195 1.937 1.572.435 3.13.982 4.562 1.684 1.151.576 2.232 1.249 3.187 2.19l.505-.576c-.351-.337-.688-.673-1.039-.996-2.19-1.825-4.829-2.906-7.467-3.734-4.703-1.46-9.812-2.162-15.034-2.527a142.43 142.43 0 0 0-10.163-.393h-3.411c-6.906-.084-13.63.295-19.975 1.46Z" mask="url(#aB)"/><path fill="#ff8200" stroke="none" d="M257.472 381.089c22.277 8.549 46.701 8.97 72.614 1.207.407-1.123.8-2.246-.997-3.355-23.442 6.373-46.491 7.384-70.255-.814-1.643.8-1.783 1.825-1.362 2.962Z"/><mask id="aD"><rect width="120%" height="120%" x="-10%" y="-10%" fill="url(#aC)" stroke="none"/></mask><path fill="#000" stroke="none" d="M257.472 381.089c22.277 8.549 46.701 8.97 72.614 1.207.407-1.123.8-2.246-.997-3.355-23.442 6.373-46.491 7.384-70.255-.814-1.643.8-1.783 1.825-1.362 2.962Z" mask="url(#aD)"/><mask id="aF"><rect width="120%" height="120%" x="-10%" y="-10%" fill="url(#aE)" stroke="none"/></mask><path fill="#fff" stroke="none" d="M258.202 380.008c22.305 8.549 46.084 8.97 71.996 1.207.421-1.123.548-.21-1.249-1.319-23.428 6.373-46.491 7.762-70.242-.421-1.656.772-.898-.59-.505.533Z" mask="url(#aF)"/><mask id="aH"><rect width="120%" height="120%" x="-10%" y="-10%" fill="url(#aG)" stroke="none"/></mask><path fill="#402100" stroke="none" d="M257.654 379.559c21.814 9.096 45.312 10.373 71.084 1.081l45.537-5.91c-7.173 38.251-19.119 70.593-80.335 41.634-44.778 25.688-83.169-21.154-75.814-42.715l39.528 5.91Z" mask="url(#aH)"/><path fill="#e46700" stroke="none" d="M109.296 341.139c.435 4.45.941 8.858-1.74 14.459L46.859 347.4l-3.495-1.586c-.744-3.917-2.541-12.423 1.979-12.844 4.52-.393 43.894 6.387 63.953 8.169Z"/><mask id="aJ"><rect width="120%" height="120%" x="-10%" y="-10%" fill="url(#aI)" stroke="none"/></mask><path fill="#400000" stroke="none" d="M109.296 341.139c.435 4.45.941 8.858-1.74 14.459L46.859 347.4l-3.495-1.586c-.744-3.917-2.541-12.423 1.979-12.844 4.52-.393 43.894 6.387 63.953 8.169Z" mask="url(#aJ)"/><mask id="aL"><rect width="120%" height="120%" x="-10%" y="-10%" fill="url(#aK)" stroke="none"/></mask><path fill="#ffba00" stroke="none" d="M109.296 341.139c.435 4.45.941 8.858-1.74 14.459L46.859 347.4l-3.495-1.586c-.744-3.917-2.541-12.423 1.979-12.844 4.52-.393 43.894 6.387 63.953 8.169Z" mask="url(#aL)"/><mask id="aN"><rect width="120%" height="120%" x="-10%" y="-10%" fill="url(#aM)" stroke="none"/></mask><path fill="#e46700" stroke="none" d="M109.296 341.139c.435 4.45.941 8.858-1.74 14.459L46.859 347.4l-3.495-1.586c-.744-3.917-2.541-12.423 1.979-12.844 4.52-.393 43.894 6.387 63.953 8.169Z" mask="url(#aN)"/><mask id="aP"><rect width="120%" height="120%" x="-10%" y="-10%" fill="url(#aO)" stroke="none"/></mask><path fill="#fff" stroke="none" d="M109.296 341.139c.435 4.45.941 8.858-1.74 14.459L46.859 347.4l-3.495-1.586c-.744-3.917-2.541-12.423 1.979-12.844 4.52-.393 43.894 6.387 63.953 8.169Z" mask="url(#aP)"/><mask id="aR"><rect width="120%" height="120%" x="-10%" y="-10%" fill="url(#aQ)" stroke="none"/></mask><path fill="#fff" stroke="none" d="m46.242 347.161-.042.421 14.668 2.218 14.711 2.078 14.725 1.839 14.725 1.67.042-.435-14.669-2.218-14.696-2.049-14.725-1.839-14.739-1.685Z" mask="url(#aR)"/><mask id="aT"><rect width="120%" height="120%" x="-10%" y="-10%" fill="url(#aS)" stroke="none"/></mask><path fill="#bf0000" stroke="none" d="m69.431 333.335-.098.744c3.088.421 6.19.8 9.278 1.207 3.102.421 6.191.8 9.279 1.221 3.102.393 6.19.786 9.278 1.193 3.102.407 6.191.8 9.279 1.208 3.102.407 6.19.828 9.278 1.207 3.103.407 6.191.786 9.279 1.193 3.102.393 6.19.786 9.278 1.207 3.103.379 6.191.786 9.279 1.165 3.102.407 6.19.8 9.278 1.207 3.103.407 6.191.786 9.279 1.194 3.102.393 6.19.786 9.278 1.179 3.103.393 6.191.786 9.293 1.193 3.088.379 6.176.786 9.279 1.151 3.088.393 6.19.8 9.292 1.179 3.088.407 6.176.786 9.279 1.193 3.088.393 6.176.786 9.278 1.165 3.088.379 6.176.786 9.279 1.179 3.088.365 6.176.772 9.278 1.151 3.088.379 6.176.786 9.279 1.165 3.088.379 6.204.786 9.306 1.165 0 0 .042-.014.084-.014.267.043.576-.154.815-.252.926-.449 1.853-.871 2.807-1.306a111.483 111.483 0 0 1 6.429-2.54c5.868-2.092 12.016-3.566 18.501-4.282 2.035-.238 4.099-.365 6.19-.463 3.453-.126 6.977 0 10.304.337a89.326 89.326 0 0 1 20.016 4.239 124.515 124.515 0 0 1 11.132 4.366c.196.112.393.21.66.252.07.028.182.071.266.042 9.812-1.08 19.624-2.217 29.45-3.34 5.138-.576 9.587-1.109 14.725-1.685 34.405-3.916 68.768-7.931 103.117-11.917l-.085-.786a42383.6 42383.6 0 0 0-73.737 7.846l-73.428 7.931-3.284-1.46c-8.156-3.439-16.69-6.035-25.941-7.215a80.765 80.765 0 0 0-14.346-.603c-2.821.126-5.572.421-8.268.8a72.988 72.988 0 0 0-8.703 1.797 90.085 90.085 0 0 0-12.886 4.421l-3.86 1.783-83.324-10.191c-34.026-4.127-68.094-8.183-102.162-12.226Z" mask="url(#aT)"/><mask id="aV"><rect width="120%" height="120%" x="-10%" y="-10%" fill="url(#aU)" stroke="none"/></mask><path fill="#fff" stroke="none" d="m255.605 372.821-3.86-.098.519 3.397.842 3.411.843 3.369.533 3.411.772.028-.07-3.383.253-3.383.238-3.383-.07-3.369Z" mask="url(#aV)"/><mask id="aX"><rect width="120%" height="120%" x="-10%" y="-10%" fill="url(#aW)" stroke="none"/></mask><path fill="#402100" stroke="none" d="M86.149 398.186c-.631-4.829-1.333-9.643-3.79-14.107l34.686 15.455c-11.665-1.348-22.684-2.26-30.896-1.348Z" mask="url(#aX)"/><mask id="aZ"><rect width="120%" height="120%" x="-10%" y="-10%" fill="url(#aY)" stroke="none"/></mask><path fill="#7f4100" stroke="none" d="M131.77 602.159 86.542 397.47c-4.632-15.651-9.124-27.077-19.441-32.917l64.669 237.606Z" mask="url(#aZ)"/><path fill="#000" stroke="none" d="m540.081 334.682-.225 14.866-205.124 23.414.042-3.44c-.393-1.698-1.418-3.326-2.962-4.842-3.228-5.784-23.063-10.683-41.985-8.465l-.224-7.566c16.03-.224 40.286 4.969 47.586 10.781l202.892-24.748Z"/><path fill="#bf0000" stroke="none" d="m335.406 368.933-18.838 228.299 157.945-23.301 66.578-226.391-205.685 21.393Z"/><mask id="bb"><rect width="120%" height="120%" x="-10%" y="-10%" fill="url(#ba)" stroke="none"/></mask><path fill="#400000" stroke="none" d="m335.406 368.933-18.838 228.299 157.945-23.301 66.578-226.391-205.685 21.393Z" mask="url(#bb)"/><mask id="bd"><rect width="120%" height="120%" x="-10%" y="-10%" fill="url(#bc)" stroke="none"/></mask><path fill="#fff7c8" stroke="none" d="m334.395 372.119-29.127 248.106 164.361-25.295 69.904-248.106-205.138 25.295Z" mask="url(#bd)"/><path fill="#e46700" stroke="none" d="m546.79 339.623-1.389 7.005-12.9 39.767-52.794-32.355c25.421-7.468 51.067-15.118 67.083-14.417Z"/><mask id="bf"><rect width="120%" height="120%" x="-10%" y="-10%" fill="url(#be)" stroke="none"/></mask><path fill="#bf0000" stroke="none" d="m546.79 339.623-1.389 7.005-12.9 39.767-52.794-32.355c25.421-7.468 51.067-15.118 67.083-14.417Z" mask="url(#bf)"/><mask id="bh"><rect width="120%" height="120%" x="-10%" y="-10%" fill="url(#bg)" stroke="none"/></mask><path fill="#402100" stroke="none" d="M333.104 388.192c-.197.014 124.986-15.946 187.563-23.919l-6.864 4.941c-59.18 8.113-183.1 25.294-183.296 25.098-.169-.197 3.551-4.478 2.597-6.12Z" mask="url(#bh)"/><mask id="bj"><rect width="120%" height="120%" x="-10%" y="-10%" fill="url(#bi)" stroke="none"/></mask><path fill="#402100" stroke="none" d="M504.019 392.347c3.51-8.184 10.149-18.403 17.785-29.268.379-.603 1.432-3.902-6.4-1.796-6.415 1.712-123.12 16.956-181.43 24.649l-3.214 8.015 171.266-1.446 1.993-.154Z" mask="url(#bj)"/><mask id="bl"><rect width="120%" height="120%" x="-10%" y="-10%" fill="url(#bk)" stroke="none"/></mask><path fill="#000" stroke="none" d="m333.441 388.234 1.291-5.769c63.279-7.131 189.894-21.337 190.273-19.568.351 1.783-55.573 201.657-57.566 201.657-1.979 0-19.933-20.438-28.931-30.643L333.441 388.234Z" mask="url(#bl)"/><path fill="#fff" stroke="none" d="m293.94 398.27.857 219.583c31.681 33.24 46.869 32.678 95.48 5.306 22.965-12.718 43.627-22.432 66.381-20.761l64.571-238.238-67.434 24.593-159.349 8.268-.506 1.249Z"/><mask id="bn"><rect width="120%" height="120%" x="-10%" y="-10%" fill="url(#bm)" stroke="none"/></mask><path fill="#ffda00" stroke="none" d="m294.375 425.783.422 192.07c31.681 33.24 46.869 32.678 95.48 5.306 22.965-12.718 43.627-22.432 66.381-20.761l46.814-172.993-50.028-12.184-158.563 7.313-.506 1.249Z" mask="url(#bn)"/><mask id="bp"><rect width="120%" height="120%" x="-10%" y="-10%" fill="url(#bo)" stroke="none"/></mask><path fill="#ce7e2b" stroke="none" d="m293.94 402.229.857 215.624c31.681 33.24 46.869 32.678 95.48 5.306 22.965-12.718 43.627-22.432 66.381-20.761l64.178-235.865-64.262 16.662-162.128 17.799-.506 1.235Z" mask="url(#bp)"/><path fill="#ff8200" stroke="none" d="m481.602 554.658-26.418 23.708c7.272-1.305 20.003-1.123 20.34-4.351l6.078-19.357Z"/><mask id="br"><rect width="120%" height="120%" x="-10%" y="-10%" fill="url(#bq)" stroke="none"/></mask><path fill="#bf0000" stroke="none" d="m481.602 554.658-26.418 23.708c7.272-1.305 20.003-1.123 20.34-4.351l6.078-19.357Z" mask="url(#br)"/><path fill="#7f0000" stroke="none" d="m465.488 569.186 16.128-14.556-.505-2.499-.772 1.923-13.827 12.058-1.024 3.074Z"/><mask id="bt"><rect width="120%" height="120%" x="-10%" y="-10%" fill="url(#bs)" stroke="none"/></mask><path fill="#fff" stroke="none" d="m294.628 399.913.169 217.94c31.681 33.24 46.869 32.678 95.48 5.306 22.965-12.718 43.627-22.432 66.381-20.761l64.571-237.059-67.827 22.614-158.269 10.71-.505 1.25Z" mask="url(#bt)"/><mask id="bv"><rect width="120%" height="120%" x="-10%" y="-10%" fill="url(#bu)" stroke="none"/></mask><path fill="#fff3ab" stroke="none" d="m293.94 400.643.857 217.21c31.681 33.24 46.869 32.678 95.48 5.306 22.965-12.718 43.627-22.432 66.381-20.761l64.571-236.652-63.855 23.793-162.928 9.868-.506 1.236Z" mask="url(#bv)"/><mask id="bx"><rect width="120%" height="120%" x="-10%" y="-10%" fill="url(#bw)" stroke="none"/></mask><path fill="#402100" stroke="none" d="m294.74 403.422.057 214.431c31.681 33.24 46.869 32.678 95.48 5.306 22.965-12.718 43.627-22.432 66.381-20.761l46.814-172.993-50.028-12.184-158.198-15.034-.506 1.235Z" mask="url(#bx)"/><mask id="bz"><rect width="120%" height="120%" x="-10%" y="-10%" fill="url(#by)" stroke="none"/></mask><path fill="#ce7e2b" stroke="none" d="m293.94 398.663.857 219.19c31.681 33.24 46.869 32.678 95.48 5.306 22.965-12.718 43.627-22.432 66.381-20.761l46.814-172.993-50.028-12.184-158.998-19.807-.506 1.249Z" mask="url(#bz)"/><mask id="bB"><rect width="120%" height="120%" x="-10%" y="-10%" fill="url(#bA)" stroke="none"/></mask><path fill="#7f4100" stroke="none" d="m294.221 400.699.576 217.154c31.681 33.24 46.869 32.678 95.48 5.306 22.965-12.718 43.627-22.432 66.381-20.761l46.814-172.993-50.028-12.184-158.704-17.757-.519 1.235Z" mask="url(#bB)"/><path fill="#fff7c8" stroke="none" d="M503.219 398.074c-53.032 1.6-94.483 14.36-121.505 24.649-37.184 11.595-68.697 11.482-84.208-3.622-3.383-8.155-2.218-15.847.702-23.301 12.773-1.109 25.477-3.032 36.594-6.415l184.616-23.989c-10.149 11.959-13.518 17.392-16.199 32.678Z"/><mask id="bD"><rect width="120%" height="120%" x="-10%" y="-10%" fill="url(#bC)" stroke="none"/></mask><path fill="#402100" stroke="none" d="M503.219 398.074c-53.032 1.6-94.483 14.36-121.505 24.649-37.184 11.595-68.697 11.482-84.208-3.622-3.383-8.155-2.218-15.847.702-23.301 12.773-1.109 25.477-3.032 36.594-6.415l184.616-23.989c-10.149 11.959-13.518 17.392-16.199 32.678Z" mask="url(#bD)"/><mask id="bF"><rect width="120%" height="120%" x="-10%" y="-10%" fill="url(#bE)" stroke="none"/></mask><path fill="#fff" stroke="none" d="m294.628 400.699.169 217.154c31.681 33.24 46.869 32.678 95.48 5.306 22.965-12.718 43.627-22.432 66.381-20.761l64.178-236.652-62.676 17.056-163.027 16.662-.505 1.235Z" mask="url(#bF)"/><mask id="bH"><rect width="120%" height="120%" x="-10%" y="-10%" fill="url(#bG)" stroke="none"/></mask><path fill="#7f4100" stroke="none" d="M503.219 398.074c-53.032 1.6-94.483 14.36-121.505 24.649-37.184 11.595-68.697 11.482-84.208-3.622-3.383-8.155-5.25-15.595-2.33-23.034 12.759-1.123 28.509-3.299 39.626-6.682l184.616-23.989c-10.149 11.959-13.518 17.392-16.199 32.678Z" mask="url(#bH)"/><mask id="bJ"><rect width="120%" height="120%" x="-10%" y="-10%" fill="url(#bI)" stroke="none"/></mask><path fill="#fff" stroke="none" d="M299.008 419.13c1.488 1.712 3.453 3.214 5.965 4.548.899.477 1.839.926 2.794 1.347l2.807 1.235.618.197c.463.126.912.267 1.376.393 1.389.379 2.821.758 4.253 1.067 4.028.898 8.296 1.488 12.83 1.754 5.151.309 10.836.141 16.591-.477 5.798-.617 11.244-1.586 16.536-2.737 2.737-.59 5.419-1.235 8.086-1.909l2.26-.59c.224-.056.477-.126.729-.196l.085-.014 12.83-4.31c4.295-1.445 8.576-2.891 12.928-4.295 6.836-2.218 13.798-4.337 21.069-6.092.267-.056.52-.112.772-.183l.043-.014.814-.21c1.516-.435 3.032-.842 4.562-1.235a372.43 372.43 0 0 1 14.009-3.285c8.366-1.755 17.013-3.187 25.997-4.309 4.449-.548 9.025-.997 13.644-1.334 3.874-.267 7.678-.491 11.44-.632 3.523-.14 6.962-.182 10.387-.196l-.168.912c-3.608.113-7.243.253-10.963.492-6.148.393-12.409.954-18.375 1.67-5.965.716-11.805 1.614-17.49 2.611-5.095.884-10.093 1.937-14.992 3.032-4.267.968-8.45 2.021-12.549 3.13-1.038.281-2.077.562-3.102.856-.702.197-1.39.407-2.105.59a255.203 255.203 0 0 0-7.061 1.867c-5.769 1.614-11.398 3.425-16.957 5.278-7.089 2.358-14.121 4.786-21.224 7.103-.688.224-1.348.463-2.035.659-.787.239-1.615.435-2.415.632-1.432.351-2.877.716-4.337 1.067a232.31 232.31 0 0 1-10.107 2.119 137.867 137.867 0 0 1-10.584 1.53c-1.937.225-3.972.408-5.938.52-6.934.393-13.405.182-19.329-.702-3.214-.491-6.288-1.109-9.25-1.909a74.447 74.447 0 0 1-3.439-1.025c-.407-.126-.842-.252-1.221-.407-.351-.126-.674-.295-.983-.435-2.836-1.305-5.531-2.709-7.608-4.309-2.878-2.204-4.689-4.787-5.503-7.707a17.394 17.394 0 0 1-.533-2.569c-.042-.407-.056-.842-.098-1.263l1.572-.168c.337 2.933 1.347 5.586 3.369 7.903Z" mask="url(#bJ)"/><mask id="bL"><rect width="120%" height="120%" x="-10%" y="-10%" fill="url(#bK)" stroke="none"/></mask><path fill="#402100" stroke="none" d="M296.874 407.928c15.988 6.878 32.44 12.956 55.011 8.52 14.725-3.397 44.175-10.19 55.138-12.591 10.963-2.414 41.002-9.306 52.639-10.738 12.381-1.502 35.402-2.794 44.905-2.148l.561-2.133c-11.973.421-40.3 2.203-49.312 3.607-9.012 1.404-56.541 11.174-68.501 14.22-11.974 3.032-40.02 7.762-50.66 8.324-12.044.631-32.355-3.327-39.781-7.061Z" mask="url(#bL)"/><mask id="bN"><rect width="120%" height="120%" x="-10%" y="-10%" fill="url(#bM)" stroke="none"/></mask><path fill="#402100" stroke="none" d="M296.874 407.928c15.988 6.878 32.44 12.956 55.011 8.52 14.725-3.397 44.175-10.19 55.138-12.591 10.963-2.414 41.002-9.306 52.639-10.738 12.381-1.502 35.402-2.794 44.905-2.148l.561-2.133c-11.973.421-40.3 2.203-49.312 3.607-9.012 1.404-56.541 11.174-68.501 14.22-11.974 3.032-40.02 7.762-50.66 8.324-12.044.631-32.355-3.327-39.781-7.061Z" mask="url(#bN)"/><mask id="bP"><rect width="120%" height="120%" x="-10%" y="-10%" fill="url(#bO)" stroke="none"/></mask><path fill="#fff" stroke="none" d="M471.411 390.522c3.72-.281 7.44-.491 11.118-.716 7.467-.435 14.851-.842 22.361-1.347v.224c-3.243.239-6.457.463-9.7.674-7.917.519-15.82.982-23.779 1.586-2.161.169-4.309.323-6.373.562-1.08.112-2.133.224-3.186.365-.239.028-.449.042-.688.084l-.323.042c-.014 0-.042 0-.056.014h-.07c-.969.126-1.951.309-2.92.477-2.835.477-5.615 1.025-8.422 1.544-3.383.604-6.682 1.292-10.036 1.937-4.422.871-8.816 1.755-13.195 2.653-3.917.8-7.777 1.601-11.637 2.429-2.316.519-4.562 1.067-6.892 1.586-2.457.533-4.955 1.137-7.454 1.698-6.668 1.488-13.349 2.948-20.101 4.31a567.683 567.683 0 0 1-16.873 3.242c-4.085.73-8.211 1.418-12.437 1.994-3.13.421-6.372.8-9.643.982-5.067.295-9.798.239-14.346-.042a105.266 105.266 0 0 1-12.296-1.474c-3.678-.674-7.272-1.53-10.57-2.695-1.194-.393-2.415-.856-3.482-1.418-.533-.28-1.01-.561-1.516-.842l.295-.168c.379.21.716.407 1.095.603 1.109.59 2.372 1.067 3.608 1.502 1.516.548 3.116.997 4.73 1.39 5.489 1.376 11.426 2.274 17.729 2.653 3.383.211 6.878.309 10.5.196a80.668 80.668 0 0 0 3.158-.14l3.215-.196 2.582-.253c5.966-.66 11.679-1.614 17.336-2.639 10.654-1.923 21.07-4.141 31.359-6.373 3.916-.87 7.819-1.74 11.679-2.625 2.681-.617 5.362-1.249 8.085-1.839 4.562-.996 9.124-1.909 13.757-2.849a1402.664 1402.664 0 0 1 23.343-4.52c1.474-.281 2.948-.534 4.45-.8a124.79 124.79 0 0 1 5.994-.941c3.088-.407 6.345-.631 9.601-.87Z" mask="url(#bP)"/><mask id="bR"><rect width="120%" height="120%" x="-10%" y="-10%" fill="url(#bQ)" stroke="none"/></mask><path fill="#000" stroke="none" d="M307.177 412.42c14.936 4.815 30.433 9.082 59.096.66-19.834 4.337-39.556 4.604-59.096-.66Z" mask="url(#bR)"/><mask id="bT"><rect width="120%" height="120%" x="-10%" y="-10%" fill="url(#bS)" stroke="none"/></mask><path fill="#edbc00" stroke="none" d="m294.375 425.783.422 192.07c31.681 33.24 46.869 32.678 95.48 5.306 22.965-12.718 43.627-22.432 66.381-20.761l46.814-172.993-50.028-12.184-158.563 7.313-.506 1.249Z" mask="url(#bT)"/><mask id="bV"><rect width="120%" height="120%" x="-10%" y="-10%" fill="url(#bU)" stroke="none"/></mask><path fill="#fff" stroke="none" d="M503.219 398.074c-53.032 1.6-94.483 14.36-121.505 24.649-37.184 11.595-68.697 11.482-84.208-3.622-3.383-8.155-3.594-16.002-3.074-22.852 12.773-1.109 29.253-3.481 40.37-6.864l184.616-23.989c-10.149 11.959-13.518 17.392-16.199 32.678Z" mask="url(#bV)"/><mask id="bX"><rect width="120%" height="120%" x="-10%" y="-10%" fill="url(#bW)" stroke="none"/></mask><path fill="#7f4100" stroke="none" d="M503.219 398.074c-53.032 1.6-94.483 14.36-121.505 24.649-37.184 11.595-68.697 11.482-84.208-3.622-3.383-8.155-2.218-15.847.702-23.301 12.773-1.109 25.477-3.032 36.594-6.415l184.616-23.989c-10.149 11.959-13.518 17.392-16.199 32.678Z" mask="url(#bX)"/><mask id="bZ"><rect width="120%" height="120%" x="-10%" y="-10%" fill="url(#bY)" stroke="none"/></mask><path fill="#402100" stroke="none" d="M296.144 402.72c12.788 1.867 25.183 5.334 40.23 4.394 13.63-.828 71.253-11.272 89.276-15.006 17.968-3.706 60.388-9.615 82.44-10.57l1.39-1.67c-13.728 1.544-41.199 4.604-57.061 6.836-15.89 2.232-94.062 17.167-106.541 17.911-20.537 1.235-41.452-1.123-48.709-2.765l-1.025.87Z" mask="url(#bZ)"/><mask id="cb"><rect width="120%" height="120%" x="-10%" y="-10%" fill="url(#ca)" stroke="none"/></mask><path fill="#402100" stroke="none" d="M296.144 402.72c12.788 1.867 25.183 5.334 40.23 4.394 13.63-.828 71.253-11.272 89.276-15.006 17.968-3.706 60.388-9.615 82.44-10.57l1.39-1.67c-13.728 1.544-41.199 4.604-57.061 6.836-15.89 2.232-94.062 17.167-106.541 17.911-20.537 1.235-41.452-1.123-48.709-2.765l-1.025.87Z" mask="url(#cb)"/><mask id="cd"><rect width="120%" height="120%" x="-10%" y="-10%" fill="url(#cc)" stroke="none"/></mask><path fill="#402100" stroke="none" d="M296.144 402.72c12.788 1.867 25.183 5.334 40.23 4.394 13.63-.828 71.253-11.272 89.276-15.006 17.968-3.706 60.388-9.615 82.44-10.57l1.39-1.67c-13.728 1.544-41.199 4.604-57.061 6.836-15.89 2.232-94.062 17.167-106.541 17.911-20.537 1.235-41.452-1.123-48.709-2.765l-1.025.87Z" mask="url(#cd)"/><mask id="cf"><rect width="120%" height="120%" x="-10%" y="-10%" fill="url(#ce)" stroke="none"/></mask><path fill="#fff" stroke="none" d="m508.469 379.629.014.239c-9.475 1.151-18.88 2.4-28.355 3.579-3.467.421-6.892.871-10.331 1.264-4.548.519-9.208 1.024-13.658 1.656-6.541.884-13.069 1.937-19.526 2.99-4.084.674-8.183 1.361-12.24 2.021-2.19.379-4.394.73-6.583 1.109-2.345.407-4.661.786-7.005 1.165-.618.098-1.249.183-1.853.295-1.572.281-3.018.547-4.576.856-4.52.899-9.054 1.867-13.574 2.794-9.363 1.881-18.838 3.719-28.607 5.235-3.454.534-6.949 1.039-10.5 1.432-2.92.337-6.008.646-8.998.814-3.565.183-6.934.141-10.289.071a273.65 273.65 0 0 1-7.594-.239c-5.292-.253-10.542-.604-15.609-1.109-3.103-.309-6.149-.674-9.096-1.207-1.025-.183-2.008-.407-3.004-.632l.196-.21c.463.112.941.21 1.432.308 1.404.295 2.835.492 4.295.716 1.643.239 3.341.435 5.054.59 4.491.449 9.096.758 13.756.997 3.565.182 7.159.294 10.823.35 1.502.014 3.018.029 4.576.029.379-.015.772-.015 1.179 0 .182-.015.379-.015.561-.015a.197.197 0 0 1 .127 0c.042 0 .126-.014.084 0 .982-.028 1.979-.056 2.962-.112 2.779-.14 5.614-.421 8.324-.716a278.47 278.47 0 0 0 8.885-1.179c10.331-1.544 20.396-3.509 30.292-5.516 3.987-.801 8.001-1.629 11.974-2.457 1.558-.309 3.116-.632 4.66-.912a34.037 34.037 0 0 1 2.793-.52c2.555-.421 5.082-.814 7.651-1.235 4.056-.688 8.085-1.347 12.142-2.021 6.99-1.165 14.051-2.288 21.154-3.341 3.593-.519 7.229-1.053 10.907-1.46 5.46-.618 10.934-1.207 16.311-1.867 10.401-1.263 20.831-2.527 31.246-3.762Z" mask="url(#cf)"/><mask id="ch"><rect width="120%" height="120%" x="-10%" y="-10%" fill="url(#cg)" stroke="none"/></mask><path fill="#402100" stroke="none" d="m512.372 373.509-.043.239c-.73-.014-1.488 0-2.217.028-1.811.07-3.636.168-5.545.323-3.931.336-7.819.912-11.412 1.502-1.572.266-3.215.477-4.857.715-2.892.436-5.769.829-8.689 1.264-2.906.435-5.797.828-8.661 1.235-3.257.463-6.471.941-9.728 1.39-2.442.323-4.871.688-7.313 1.024-5.559.786-11.117 1.587-16.676 2.359a18634.996 18634.996 0 0 1-56.106 7.79c-13.616 1.895-27.317 3.762-40.848 5.657-5.798.8-12.1 1.278-17.996 1.53-8.324.337-16.283.197-24.705.646l.014-.211c6.583-.421 12.9-.463 19.287-.617 2.288-.056 4.604-.127 6.92-.267 2.513-.154 5.124-.323 7.678-.547 3.51-.309 6.893-.744 10.219-1.208 3.468-.533 7.033-.996 10.514-1.502 5.559-.786 11.16-1.572 16.732-2.344 7.103-.996 14.248-1.979 21.407-3.004 15.82-2.218 31.71-4.379 47.558-6.583 13.798-1.923 27.498-3.804 41.255-5.713 3.972-.534 7.959-1.095 11.917-1.671.772-.098 1.572-.224 2.302-.322.365-.057.702-.141 1.053-.169 5.699-.912 12.17-1.586 17.94-1.544Z" mask="url(#ch)"/><mask id="cj"><rect width="120%" height="120%" x="-10%" y="-10%" fill="url(#ci)" stroke="none"/></mask><path fill="#402100" stroke="none" d="M508.652 372.583c1.249-.057 2.526-.113 3.748-.099l-.028.113c-1.025-.014-2.092.042-3.145.084-3.551.154-7.313.547-10.752 1.01-1.797.267-3.622.562-5.306.815-4.366.659-8.816 1.319-13.265 1.951-6.12.87-12.156 1.74-18.263 2.625-7.79 1.123-15.553 2.204-23.315 3.312-16.859 2.401-33.731 4.773-50.562 7.145-7.046.983-14.121 2.008-21.112 2.962-6.836.941-13.686 1.951-20.494 2.892-2.077.281-4.07.575-6.134.87-5.769.758-11.974 1.334-17.911 1.6-8.24.379-16.185.351-24.523.871l.028-.113c6.555-.435 12.872-.519 19.259-.73 2.288-.07 4.604-.154 6.92-.308 2.541-.155 5.138-.337 7.707-.576 3.509-.323 6.892-.772 10.233-1.221 1.445-.225 2.877-.407 4.323-.618 2.021-.309 4.029-.589 6.05-.87 5.503-.772 11.005-1.572 16.494-2.344 23.638-3.341 47.361-6.682 71.083-10.037 13.28-1.881 26.559-3.734 39.768-5.601 3.944-.561 7.818-1.123 11.72-1.684 1.137-.168 2.246-.365 3.299-.491 4.043-.646 8.212-1.165 12.549-1.46.548-.042 1.095-.07 1.629-.098Z" mask="url(#cj)"/><mask id="cl"><rect width="120%" height="120%" x="-10%" y="-10%" fill="url(#ck)" stroke="none"/></mask><path fill="#bf0000" stroke="none" d="m334.774 373.341 204.493-25.913c.266-.463.814-1.362.042-3.158-.8-1.797-137.101 15.497-205.265 24.115l.73 4.956Z" mask="url(#cl)"/><mask id="cn"><rect width="120%" height="120%" x="-10%" y="-10%" fill="url(#cm)" stroke="none"/></mask><path fill="#fff" stroke="none" d="m537.652 345.21.085.842-50.787 6.78-50.772 7.145-50.744 7.131-50.786 6.766-.463-4.323 50.842-6.275 50.884-5.91 50.899-5.909 50.842-6.247Z" mask="url(#cn)"/><path fill="#e46700" stroke="none" d="M479.834 341.139c-.436 4.45-.941 8.858 1.74 14.459l60.697-8.198 3.509-1.586c.73-3.917 2.526-12.423-1.993-12.844-4.506-.393-43.894 6.387-63.953 8.169Z"/><mask id="cp"><rect width="120%" height="120%" x="-10%" y="-10%" fill="url(#co)" stroke="none"/></mask><path fill="#400000" stroke="none" d="M479.834 341.139c-.436 4.45-.941 8.858 1.74 14.459l60.697-8.198 3.509-1.586c.73-3.917 2.526-12.423-1.993-12.844-4.506-.393-43.894 6.387-63.953 8.169Z" mask="url(#cp)"/><mask id="cr"><rect width="120%" height="120%" x="-10%" y="-10%" fill="url(#cq)" stroke="none"/></mask><path fill="#ffba00" stroke="none" d="M479.834 341.139c-.436 4.45-.941 8.858 1.74 14.459l60.697-8.198 3.509-1.586c.73-3.917 2.526-12.423-1.993-12.844-4.506-.393-43.894 6.387-63.953 8.169Z" mask="url(#cr)"/><mask id="ct"><rect width="120%" height="120%" x="-10%" y="-10%" fill="url(#cs)" stroke="none"/></mask><path fill="#e46700" stroke="none" d="M479.834 341.139c-.436 4.45-.941 8.858 1.74 14.459l60.697-8.198 3.509-1.586c.73-3.917 2.526-12.423-1.993-12.844-4.506-.393-43.894 6.387-63.953 8.169Z" mask="url(#ct)"/><mask id="cv"><rect width="120%" height="120%" x="-10%" y="-10%" fill="url(#cu)" stroke="none"/></mask><path fill="#fff" stroke="none" d="M479.834 341.139c-.436 4.45-.941 8.858 1.74 14.459l60.697-8.198 3.509-1.586c.73-3.917 2.526-12.423-1.993-12.844-4.506-.393-43.894 6.387-63.953 8.169Z" mask="url(#cv)"/><mask id="cx"><rect width="120%" height="120%" x="-10%" y="-10%" fill="url(#cw)" stroke="none"/></mask><path fill="#fff" stroke="none" d="m542.902 347.161.042.421-14.683 2.218-14.71 2.078-14.711 1.839-14.739 1.67-.042-.435 14.682-2.218 14.683-2.049 14.725-1.839 14.753-1.685Z" mask="url(#cx)"/><mask id="cz"><rect width="120%" height="120%" x="-10%" y="-10%" fill="url(#cy)" stroke="none"/></mask><path fill="#fff" stroke="none" d="m333.539 372.372 3.86-.084-.519 3.495-.857 3.523-.842 3.496-.533 3.509-.758.028.07-3.495-.253-3.482-.238-3.495.07-3.495Z" mask="url(#cz)"/><mask id="cB"><rect width="120%" height="120%" x="-10%" y="-10%" fill="url(#cA)" stroke="none"/></mask><path fill="#402100" stroke="none" d="M502.981 398.186c.631-4.829 1.333-9.643 3.79-14.107l-34.686 15.455c11.679-1.348 22.684-2.26 30.896-1.348Z" mask="url(#cB)"/><mask id="cD"><rect width="120%" height="120%" x="-10%" y="-10%" fill="url(#cC)" stroke="none"/></mask><path fill="#7f4100" stroke="none" d="m457.374 602.159 45.214-204.689c4.632-15.651 9.138-27.077 19.441-32.917l-64.655 237.606Z" mask="url(#cD)"/><mask id="cF"><rect width="120%" height="120%" x="-10%" y="-10%" fill="url(#cE)" stroke="none"/></mask><path fill="#000" stroke="none" d="m293.646 396.053.042 4.884.252 4.899.239 4.885.042 4.885.491.014.239-4.885.449-4.87.449-4.885.239-4.885-2.442-.042Z" mask="url(#cF)"/><mask id="cH"><rect width="120%" height="120%" x="-10%" y="-10%" fill="url(#cG)" stroke="none"/></mask><path fill="#000" stroke="none" d="m293.646 416.098.042 50.505.252 50.52.239 50.505.042 50.505h.491l.239-50.505.449-50.505.449-50.506.239-50.505-2.442-.014Z" mask="url(#cH)"/></g></svg>